<svg width="1775" height="282" viewBox="0 0 1775 282" fill="none" xmlns="http://www.w3.org/2000/svg">
<path d="M152.104 42.752C173.608 42.752 192.616 47.552 209.128 57.152C225.832 66.56 238.696 79.712 247.72 96.608C256.936 113.504 261.544 132.608 261.544 153.92C261.544 175.808 254.632 196.064 240.808 214.688C227.176 233.12 210.184 247.808 189.832 258.752C169.48 269.504 150.088 274.88 131.656 274.88C122.824 274.88 114.088 274.4 105.448 273.44C91.048 272.48 80.008 272 72.328 272H26.824V255.872L53.896 234.56V74.144L21.928 64.352L31.432 45.632H72.04C89.704 45.632 106.984 45.056 123.88 43.904C136.936 43.136 146.344 42.752 152.104 42.752ZM140.008 248.096C152.104 248.096 163.048 244.64 172.84 237.728C182.824 230.816 190.6 221.216 196.168 208.928C201.928 196.64 204.808 182.816 204.808 167.456C204.808 149.024 202.024 132.416 196.456 117.632C191.08 102.656 182.728 90.752 171.4 81.92C160.264 72.896 146.44 68.384 129.928 68.384C121.288 68.384 113.32 70.688 106.024 75.296V242.624C115.816 246.272 127.048 248.096 139.72 248.096H140.008ZM504.306 83.072V182.72C504.306 202.88 499.218 220.16 489.042 234.56C479.058 248.96 466.578 259.808 451.602 267.104C436.818 274.208 422.418 277.76 408.402 277.76C389.97 277.76 373.362 274.016 358.578 266.528C343.986 258.848 332.562 248.384 324.306 235.136C316.242 221.696 312.21 206.624 312.21 189.92V72.704L280.53 64.352L289.746 45.632H391.698V61.76L364.338 83.072V179.552C364.338 200.096 369.618 216.128 380.178 227.648C390.738 238.976 406.674 244.64 427.986 244.64C436.05 244.64 444.018 242.24 451.89 237.44C459.762 232.448 466.29 225.248 471.474 215.84C476.658 206.432 479.25 195.296 479.25 182.432V77.312L445.842 64.352L455.058 45.632H531.666V61.76L504.306 83.072ZM734.256 272H550.512V255.872L577.584 234.56V72.704L545.616 64.352L555.12 45.632H657.072V61.76L629.712 83.072V250.112H694.512L739.152 185.6L754.992 192.224V277.184L734.256 272ZM991.692 84.8V272H966.924L831.852 117.92V238.016L872.748 253.28L863.532 272H780.012V255.872L807.084 233.12V81.92L775.116 64.352L784.62 45.632H835.308L966.924 195.392V79.328L926.028 64.352L935.531 45.632H1019.05V61.76L991.692 84.8ZM1281.25 272H1174.11V255.872L1205.51 237.152L1187.94 194.24H1098.95L1083.11 232.832L1127.17 253.28L1117.95 272H1024.93V255.872L1056.03 232.544L1129.76 54.848L1179.59 40.16L1261.38 238.592L1290.75 253.28L1281.25 272ZM1143.87 85.664L1108.16 172.064H1179.01L1143.87 85.664ZM1422.95 224.48C1422.95 218.72 1420.65 213.248 1416.04 208.064C1411.62 202.88 1405.96 198.08 1399.05 193.664C1392.14 189.248 1382.92 183.872 1371.4 177.536C1357.19 169.664 1345.58 162.752 1336.55 156.8C1327.72 150.848 1320.23 143.936 1314.09 136.064C1307.94 128.192 1304.87 119.552 1304.87 110.144C1304.87 100.544 1309.29 90.272 1318.12 79.328C1326.95 68.192 1337.7 58.88 1350.38 51.392C1363.24 43.712 1375.05 39.872 1385.8 39.872C1398.66 39.872 1413.74 41.312 1431.02 44.192C1448.3 47.072 1460.97 50.144 1469.03 53.408V116.48H1441.96C1433.9 100.928 1424.97 88.832 1415.18 80.192C1405.58 71.552 1395.4 67.232 1384.65 67.232C1376.97 67.232 1370.92 69.728 1366.5 74.72C1362.09 79.52 1359.88 85.664 1359.88 93.152C1359.88 99.296 1362.18 105.152 1366.79 110.72C1371.59 116.096 1377.45 121.088 1384.36 125.696C1391.46 130.112 1400.97 135.584 1412.87 142.112C1426.89 149.792 1438.22 156.512 1446.86 162.272C1455.5 168.032 1462.79 174.752 1468.74 182.432C1474.7 190.112 1477.67 198.56 1477.67 207.776C1477.67 217.376 1472.97 227.744 1463.56 238.88C1454.15 249.824 1442.63 259.136 1429 266.816C1415.56 274.304 1403.27 278.048 1392.14 278.048C1378.7 278.048 1362.57 276.608 1343.75 273.728C1325.13 270.848 1311.69 267.776 1303.43 264.512V201.44H1330.5C1338.95 216.992 1348.74 229.088 1359.88 237.728C1371.02 246.368 1382.25 250.688 1393.58 250.688C1402.41 250.688 1409.51 248.192 1414.89 243.2C1420.26 238.016 1422.95 231.776 1422.95 224.48ZM1756.22 271.712H1654.27V255.584L1681.34 232.832V170.048H1583.71V243.776L1615.68 252.992L1606.46 271.712H1504.51V255.584L1531.58 232.832V73.28L1499.62 64.064L1509.12 45.344H1611.07V61.472L1583.71 84.512V147.872H1681.34V73.28L1649.38 64.064L1658.88 45.344H1760.83V61.472L1733.47 84.512V244.064L1765.44 252.992L1756.22 271.712Z" fill="#646464"/>
<path d="M139.104 19.752C160.608 19.752 179.616 24.552 196.128 34.152C212.832 43.56 225.696 56.712 234.72 73.608C243.936 90.504 248.544 109.608 248.544 130.92C248.544 152.808 241.632 173.064 227.808 191.688C214.176 210.12 197.184 224.808 176.832 235.752C156.48 246.504 137.088 251.88 118.656 251.88C109.824 251.88 101.088 251.4 92.448 250.44C78.048 249.48 67.008 249 59.328 249H13.824V232.872L40.896 211.56V51.144L8.928 41.352L18.432 22.632H59.04C76.704 22.632 93.984 22.056 110.88 20.904C123.936 20.136 133.344 19.752 139.104 19.752ZM127.008 225.096C139.104 225.096 150.048 221.64 159.84 214.728C169.824 207.816 177.6 198.216 183.168 185.928C188.928 173.64 191.808 159.816 191.808 144.456C191.808 126.024 189.024 109.416 183.456 94.632C178.08 79.656 169.728 67.752 158.4 58.92C147.264 49.896 133.44 45.384 116.928 45.384C108.288 45.384 100.32 47.688 93.024 52.296V219.624C102.816 223.272 114.048 225.096 126.72 225.096H127.008ZM491.306 60.072V159.72C491.306 179.88 486.218 197.16 476.042 211.56C466.058 225.96 453.578 236.808 438.602 244.104C423.818 251.208 409.418 254.76 395.402 254.76C376.97 254.76 360.362 251.016 345.578 243.528C330.986 235.848 319.562 225.384 311.306 212.136C303.242 198.696 299.21 183.624 299.21 166.92V49.704L267.53 41.352L276.746 22.632H378.698V38.76L351.338 60.072V156.552C351.338 177.096 356.618 193.128 367.178 204.648C377.738 215.976 393.674 221.64 414.986 221.64C423.05 221.64 431.018 219.24 438.89 214.44C446.762 209.448 453.29 202.248 458.474 192.84C463.658 183.432 466.25 172.296 466.25 159.432V54.312L432.842 41.352L442.058 22.632H518.666V38.76L491.306 60.072ZM721.256 249H537.512V232.872L564.584 211.56V49.704L532.616 41.352L542.12 22.632H644.072V38.76L616.712 60.072V227.112H681.512L726.152 162.6L741.992 169.224V254.184L721.256 249ZM978.692 61.8V249H953.924L818.852 94.92V215.016L859.748 230.28L850.532 249H767.012V232.872L794.084 210.12V58.92L762.116 41.352L771.62 22.632H822.308L953.924 172.392V56.328L913.028 41.352L922.531 22.632H1006.05V38.76L978.692 61.8ZM1268.25 249H1161.11V232.872L1192.51 214.152L1174.94 171.24H1085.95L1070.11 209.832L1114.17 230.28L1104.95 249H1011.93V232.872L1043.03 209.544L1116.76 31.848L1166.59 17.16L1248.38 215.592L1277.75 230.28L1268.25 249ZM1130.87 62.664L1095.16 149.064H1166.01L1130.87 62.664ZM1409.95 201.48C1409.95 195.72 1407.65 190.248 1403.04 185.064C1398.62 179.88 1392.96 175.08 1386.05 170.664C1379.14 166.248 1369.92 160.872 1358.4 154.536C1344.19 146.664 1332.58 139.752 1323.55 133.8C1314.72 127.848 1307.23 120.936 1301.09 113.064C1294.94 105.192 1291.87 96.552 1291.87 87.144C1291.87 77.544 1296.29 67.272 1305.12 56.328C1313.95 45.192 1324.7 35.88 1337.38 28.392C1350.24 20.712 1362.05 16.872 1372.8 16.872C1385.66 16.872 1400.74 18.312 1418.02 21.192C1435.3 24.072 1447.97 27.144 1456.03 30.408V93.48H1428.96C1420.9 77.928 1411.97 65.832 1402.18 57.192C1392.58 48.552 1382.4 44.232 1371.65 44.232C1363.97 44.232 1357.92 46.728 1353.5 51.72C1349.09 56.52 1346.88 62.664 1346.88 70.152C1346.88 76.296 1349.18 82.152 1353.79 87.72C1358.59 93.096 1364.45 98.088 1371.36 102.696C1378.46 107.112 1387.97 112.584 1399.87 119.112C1413.89 126.792 1425.22 133.512 1433.86 139.272C1442.5 145.032 1449.79 151.752 1455.74 159.432C1461.7 167.112 1464.67 175.56 1464.67 184.776C1464.67 194.376 1459.97 204.744 1450.56 215.88C1441.15 226.824 1429.63 236.136 1416 243.816C1402.56 251.304 1390.27 255.048 1379.14 255.048C1365.7 255.048 1349.57 253.608 1330.75 250.728C1312.13 247.848 1298.69 244.776 1290.43 241.512V178.44H1317.5C1325.95 193.992 1335.74 206.088 1346.88 214.728C1358.02 223.368 1369.25 227.688 1380.58 227.688C1389.41 227.688 1396.51 225.192 1401.89 220.2C1407.26 215.016 1409.95 208.776 1409.95 201.48ZM1743.22 248.712H1641.27V232.584L1668.34 209.832V147.048H1570.71V220.776L1602.68 229.992L1593.46 248.712H1491.51V232.584L1518.58 209.832V50.28L1486.62 41.064L1496.12 22.344H1598.07V38.472L1570.71 61.512V124.872H1668.34V50.28L1636.38 41.064L1645.88 22.344H1747.83V38.472L1720.47 61.512V221.064L1752.44 229.992L1743.22 248.712Z" fill="black"/>
<path d="M196.128 34.152L193.615 38.4745L193.645 38.4917L193.674 38.5085L196.128 34.152ZM234.72 73.608L230.31 75.9635L230.32 75.9829L230.331 76.0023L234.72 73.608ZM227.808 191.688L223.793 188.708L223.788 188.715L227.808 191.688ZM176.832 235.752L179.168 240.173L179.184 240.164L179.2 240.156L176.832 235.752ZM92.448 250.44L93.0002 245.471L92.8906 245.458L92.7806 245.451L92.448 250.44ZM13.824 249H8.824V254H13.824V249ZM13.824 232.872L10.7312 228.943L8.824 230.445V232.872H13.824ZM40.896 211.56L43.9888 215.489L45.896 213.987V211.56H40.896ZM40.896 51.144H45.896V47.4462L42.3604 46.3632L40.896 51.144ZM8.928 41.352L4.46967 39.0885L1.7776 44.3911L7.46363 46.1327L8.928 41.352ZM18.432 22.632V17.632H15.363L13.9737 20.3685L18.432 22.632ZM110.88 20.904L110.586 15.9126L110.563 15.914L110.54 15.9156L110.88 20.904ZM159.84 214.728L156.994 210.617L156.975 210.63L156.957 210.643L159.84 214.728ZM183.168 185.928L178.641 183.806L178.627 183.835L178.614 183.864L183.168 185.928ZM183.456 94.632L178.75 96.3213L178.763 96.3579L178.777 96.3943L183.456 94.632ZM158.4 58.92L155.252 62.8047L155.289 62.8343L155.326 62.8632L158.4 58.92ZM93.024 52.296L90.354 48.0685L88.024 49.5401V52.296H93.024ZM93.024 219.624H88.024V223.097L91.2785 224.309L93.024 219.624ZM139.104 24.752C159.839 24.752 177.959 29.372 193.615 38.4745L198.641 29.8294C181.273 19.732 161.377 14.752 139.104 14.752V24.752ZM193.674 38.5085C209.55 47.4498 221.734 59.908 230.31 75.9635L239.13 71.2524C229.658 53.516 216.114 39.6702 198.582 29.7954L193.674 38.5085ZM230.331 76.0023C239.104 92.0874 243.544 110.353 243.544 130.92H253.544C253.544 108.863 248.768 88.9206 239.109 71.2137L230.331 76.0023ZM243.544 130.92C243.544 151.668 237.018 170.891 223.793 188.708L231.823 194.668C246.246 175.237 253.544 153.948 253.544 130.92H243.544ZM223.788 188.715C210.598 206.549 194.172 220.751 174.464 231.348L179.2 240.156C200.196 228.865 217.754 213.691 231.828 194.661L223.788 188.715ZM174.496 231.331C154.688 241.796 136.096 246.88 118.656 246.88V256.88C138.08 256.88 158.272 251.212 179.168 240.173L174.496 231.331ZM118.656 246.88C110.006 246.88 101.454 246.41 93.0002 245.471L91.8958 255.409C100.722 256.39 109.642 256.88 118.656 256.88V246.88ZM92.7806 245.451C78.3479 244.489 67.1764 244 59.328 244V254C66.8396 254 77.7481 254.471 92.1154 255.429L92.7806 245.451ZM59.328 244H13.824V254H59.328V244ZM18.824 249V232.872H8.824V249H18.824ZM16.9168 236.801L43.9888 215.489L37.8032 207.631L10.7312 228.943L16.9168 236.801ZM45.896 211.56V51.144H35.896V211.56H45.896ZM42.3604 46.3632L10.3924 36.5712L7.46363 46.1327L39.4316 55.9247L42.3604 46.3632ZM13.3863 43.6155L22.8903 24.8955L13.9737 20.3685L4.46967 39.0885L13.3863 43.6155ZM18.432 27.632H59.04V17.632H18.432V27.632ZM59.04 27.632C76.8126 27.632 94.2062 27.0525 111.22 25.8924L110.54 15.9156C93.7618 17.0595 76.5954 17.632 59.04 17.632V27.632ZM111.174 25.8954C124.223 25.1278 133.503 24.752 139.104 24.752V14.752C133.185 14.752 123.649 15.1442 110.586 15.9126L111.174 25.8954ZM127.008 230.096C140.126 230.096 152.08 226.326 162.723 218.813L156.957 210.643C148.016 216.954 138.082 220.096 127.008 220.096V230.096ZM162.686 218.839C173.495 211.356 181.823 201.01 187.722 187.992L178.614 183.864C173.377 195.422 166.153 204.276 156.994 210.617L162.686 218.839ZM187.695 188.05C193.805 175.015 196.808 160.453 196.808 144.456H186.808C186.808 159.179 184.051 172.265 178.641 183.806L187.695 188.05ZM196.808 144.456C196.808 125.521 193.947 108.302 188.135 92.8697L178.777 96.3943C184.101 110.53 186.808 126.527 186.808 144.456H196.808ZM188.162 92.9427C182.502 77.1753 173.627 64.4522 161.474 54.9768L155.326 62.8632C165.829 71.0518 173.658 82.1367 178.75 96.3213L188.162 92.9427ZM161.548 55.0353C149.389 45.1823 134.403 40.384 116.928 40.384V50.384C132.477 50.384 145.139 54.6097 155.252 62.8047L161.548 55.0353ZM116.928 40.384C107.344 40.384 98.4502 42.9552 90.354 48.0685L95.694 56.5234C102.19 52.4208 109.232 50.384 116.928 50.384V40.384ZM88.024 52.296V219.624H98.024V52.296H88.024ZM91.2785 224.309C101.734 228.204 113.575 230.096 126.72 230.096V220.096C114.521 220.096 103.898 218.34 94.7695 214.939L91.2785 224.309ZM126.72 230.096H127.008V220.096H126.72V230.096ZM491.306 60.072L488.233 56.1275L486.306 57.6288V60.072H491.306ZM476.042 211.56L471.958 208.674L471.945 208.693L471.933 208.711L476.042 211.56ZM438.602 244.104L440.767 248.611L440.779 248.605L440.791 248.599L438.602 244.104ZM345.578 243.528L343.249 247.953L343.283 247.971L343.318 247.988L345.578 243.528ZM311.306 212.136L307.018 214.708L307.04 214.745L307.062 214.78L311.306 212.136ZM299.21 49.704H304.21V45.8513L300.484 44.8692L299.21 49.704ZM267.53 41.352L263.044 39.1436L260.343 44.6283L266.255 46.1868L267.53 41.352ZM276.746 22.632V17.632H273.634L272.26 20.4236L276.746 22.632ZM378.698 22.632H383.698V17.632H378.698V22.632ZM378.698 38.76L381.77 42.7045L383.698 41.2032V38.76H378.698ZM351.338 60.072L348.265 56.1275L346.338 57.6288V60.072H351.338ZM367.178 204.648L363.492 208.027L363.506 208.042L363.52 208.057L367.178 204.648ZM438.89 214.44L441.493 218.709L441.53 218.686L441.567 218.663L438.89 214.44ZM458.474 192.84L462.853 195.253L462.853 195.253L458.474 192.84ZM466.25 54.312H471.25V50.8886L468.058 49.6505L466.25 54.312ZM432.842 41.352L428.356 39.1436L425.945 44.0398L431.033 46.0135L432.842 41.352ZM442.058 22.632V17.632H438.946L437.572 20.4236L442.058 22.632ZM518.666 22.632H523.666V17.632H518.666V22.632ZM518.666 38.76L521.738 42.7045L523.666 41.2032V38.76H518.666ZM486.306 60.072V159.72H496.306V60.072H486.306ZM486.306 159.72C486.306 179 481.455 195.236 471.958 208.674L480.125 214.446C490.98 199.084 496.306 180.76 496.306 159.72H486.306ZM471.933 208.711C462.41 222.445 450.577 232.708 436.412 239.609L440.791 248.599C456.578 240.908 469.705 229.475 480.15 214.409L471.933 208.711ZM436.436 239.597C422.213 246.432 408.55 249.76 395.402 249.76V259.76C410.285 259.76 425.422 255.984 440.767 248.611L436.436 239.597ZM395.402 249.76C377.665 249.76 361.845 246.163 347.837 239.068L343.318 247.988C358.878 255.869 376.274 259.76 395.402 259.76V249.76ZM347.906 239.103C334.053 231.812 323.309 221.944 315.549 209.492L307.062 214.78C315.814 228.824 327.918 239.884 343.249 247.953L347.906 239.103ZM315.593 209.564C308.026 196.952 304.21 182.78 304.21 166.92H294.21C294.21 184.468 298.457 200.44 307.018 214.708L315.593 209.564ZM304.21 166.92V49.704H294.21V166.92H304.21ZM300.484 44.8692L268.804 36.5172L266.255 46.1868L297.935 54.5388L300.484 44.8692ZM272.015 43.5604L281.231 24.8404L272.26 20.4236L263.044 39.1436L272.015 43.5604ZM276.746 27.632H378.698V17.632H276.746V27.632ZM373.698 22.632V38.76H383.698V22.632H373.698ZM375.625 34.8155L348.265 56.1275L354.41 64.0165L381.77 42.7045L375.625 34.8155ZM346.338 60.072V156.552H356.338V60.072H346.338ZM346.338 156.552C346.338 177.944 351.849 195.325 363.492 208.027L370.863 201.269C361.386 190.931 356.338 176.248 356.338 156.552H346.338ZM363.52 208.057C375.339 220.736 392.825 226.64 414.986 226.64V216.64C394.522 216.64 380.136 211.216 370.835 201.239L363.52 208.057ZM414.986 226.64C424.094 226.64 432.951 223.917 441.493 218.709L436.286 210.171C429.084 214.563 422.005 216.64 414.986 216.64V226.64ZM441.567 218.663C450.251 213.156 457.325 205.284 462.853 195.253L454.094 190.427C449.254 199.212 443.272 205.74 436.212 210.217L441.567 218.663ZM462.853 195.253C468.517 184.973 471.25 172.973 471.25 159.432H461.25C461.25 171.618 458.798 181.891 454.094 190.427L462.853 195.253ZM471.25 159.432V54.312H461.25V159.432H471.25ZM468.058 49.6505L434.65 36.6905L431.033 46.0135L464.441 58.9735L468.058 49.6505ZM437.327 43.5604L446.543 24.8404L437.572 20.4236L428.356 39.1436L437.327 43.5604ZM442.058 27.632H518.666V17.632H442.058V27.632ZM513.666 22.632V38.76H523.666V22.632H513.666ZM515.593 34.8155L488.233 56.1275L494.378 64.0165L521.738 42.7045L515.593 34.8155ZM721.256 249L722.468 244.149L721.871 244H721.256V249ZM537.512 249H532.512V254H537.512V249ZM537.512 232.872L534.419 228.943L532.512 230.445V232.872H537.512ZM564.584 211.56L567.676 215.489L569.584 213.987V211.56H564.584ZM564.584 49.704H569.584V45.8425L565.847 44.8664L564.584 49.704ZM532.616 41.352L528.157 39.0885L525.348 44.6212L531.352 46.1896L532.616 41.352ZM542.12 22.632V17.632H539.05L537.661 20.3685L542.12 22.632ZM644.072 22.632H649.072V17.632H644.072V22.632ZM644.072 38.76L647.144 42.7045L649.072 41.2032V38.76H644.072ZM616.712 60.072L613.639 56.1275L611.712 57.6288V60.072H616.712ZM616.712 227.112H611.712V232.112H616.712V227.112ZM681.512 227.112V232.112H684.132L685.623 229.957L681.512 227.112ZM726.152 162.6L728.081 157.987L724.344 156.425L722.04 159.755L726.152 162.6ZM741.992 169.224H746.992V165.895L743.921 164.611L741.992 169.224ZM741.992 254.184L740.779 259.035L746.992 260.588V254.184H741.992ZM721.256 244H537.512V254H721.256V244ZM542.512 249V232.872H532.512V249H542.512ZM540.604 236.801L567.676 215.489L561.491 207.631L534.419 228.943L540.604 236.801ZM569.584 211.56V49.704H559.584V211.56H569.584ZM565.847 44.8664L533.879 36.5144L531.352 46.1896L563.32 54.5416L565.847 44.8664ZM537.074 43.6155L546.578 24.8955L537.661 20.3685L528.157 39.0885L537.074 43.6155ZM542.12 27.632H644.072V17.632H542.12V27.632ZM639.072 22.632V38.76H649.072V22.632H639.072ZM640.999 34.8155L613.639 56.1275L619.784 64.0165L647.144 42.7045L640.999 34.8155ZM611.712 60.072V227.112H621.712V60.072H611.712ZM616.712 232.112H681.512V222.112H616.712V232.112ZM685.623 229.957L730.263 165.445L722.04 159.755L677.4 224.267L685.623 229.957ZM724.222 167.213L740.062 173.837L743.921 164.611L728.081 157.987L724.222 167.213ZM736.992 169.224V254.184H746.992V169.224H736.992ZM743.204 249.333L722.468 244.149L720.043 253.851L740.779 259.035L743.204 249.333ZM978.692 61.8L975.471 57.9754L973.692 59.4738V61.8H978.692ZM978.692 249V254H983.692V249H978.692ZM953.924 249L950.164 252.296L951.657 254H953.924V249ZM818.852 94.92L822.611 91.624L813.852 81.6314V94.92H818.852ZM818.852 215.016H813.852V218.487L817.103 219.7L818.852 215.016ZM859.748 230.28L864.233 232.488L866.675 227.529L861.496 225.596L859.748 230.28ZM850.532 249V254H853.643L855.017 251.208L850.532 249ZM767.012 249H762.012V254H767.012V249ZM767.012 232.872L763.795 229.044L762.012 230.543V232.872H767.012ZM794.084 210.12L797.3 213.948L799.084 212.449V210.12H794.084ZM794.084 58.92H799.084V55.9625L796.492 54.5381L794.084 58.92ZM762.116 41.352L757.657 39.0885L755.467 43.4033L759.707 45.7339L762.116 41.352ZM771.62 22.632V17.632H768.55L767.161 20.3685L771.62 22.632ZM822.308 22.632L826.063 19.3313L824.57 17.632H822.308V22.632ZM953.924 172.392L950.168 175.693L958.924 185.655V172.392H953.924ZM953.924 56.328H958.924V52.8343L955.643 51.6329L953.924 56.328ZM913.028 41.352L908.569 39.0885L906.02 44.1104L911.308 46.0471L913.028 41.352ZM922.531 22.632V17.632H919.462L918.073 20.3685L922.531 22.632ZM1006.05 22.632H1011.05V17.632H1006.05V22.632ZM1006.05 38.76L1009.27 42.5846L1011.05 41.0862V38.76H1006.05ZM973.692 61.8V249H983.692V61.8H973.692ZM978.692 244H953.924V254H978.692V244ZM957.683 245.704L822.611 91.624L815.092 98.216L950.164 252.296L957.683 245.704ZM813.852 94.92V215.016H823.852V94.92H813.852ZM817.103 219.7L857.999 234.964L861.496 225.596L820.6 210.332L817.103 219.7ZM855.262 228.072L846.046 246.792L855.017 251.208L864.233 232.488L855.262 228.072ZM850.532 244H767.012V254H850.532V244ZM772.012 249V232.872H762.012V249H772.012ZM770.228 236.7L797.3 213.948L790.867 206.292L763.795 229.044L770.228 236.7ZM799.084 210.12V58.92H789.084V210.12H799.084ZM796.492 54.5381L764.524 36.9701L759.707 45.7339L791.675 63.3019L796.492 54.5381ZM766.574 43.6155L776.078 24.8955L767.161 20.3685L757.657 39.0885L766.574 43.6155ZM771.62 27.632H822.308V17.632H771.62V27.632ZM818.552 25.9327L950.168 175.693L957.679 169.091L826.063 19.3313L818.552 25.9327ZM958.924 172.392V56.328H948.924V172.392H958.924ZM955.643 51.6329L914.747 36.6569L911.308 46.0471L952.204 61.0231L955.643 51.6329ZM917.486 43.6155L926.99 24.8955L918.073 20.3685L908.569 39.0885L917.486 43.6155ZM922.531 27.632H1006.05V17.632H922.531V27.632ZM1001.05 22.632V38.76H1011.05V22.632H1001.05ZM1002.83 34.9354L975.471 57.9754L981.912 65.6245L1009.27 42.5846L1002.83 34.9354ZM1268.25 249V254H1271.32L1272.71 251.263L1268.25 249ZM1161.11 249H1156.11V254H1161.11V249ZM1161.11 232.872L1158.55 228.578L1156.11 230.032V232.872H1161.11ZM1192.51 214.152L1195.07 218.446L1198.77 216.242L1197.13 212.258L1192.51 214.152ZM1174.94 171.24L1179.57 169.346L1178.29 166.24H1174.94V171.24ZM1085.95 171.24V166.24H1082.59L1081.32 169.341L1085.95 171.24ZM1070.11 209.832L1065.48 207.933L1063.67 212.355L1068 214.367L1070.11 209.832ZM1114.17 230.28L1118.66 232.488L1120.92 227.898L1116.28 225.745L1114.17 230.28ZM1104.95 249V254H1108.07L1109.44 251.208L1104.95 249ZM1011.93 249H1006.93V254H1011.93V249ZM1011.93 232.872L1008.93 228.872L1006.93 230.372V232.872H1011.93ZM1043.03 209.544L1046.03 213.544L1047.13 212.723L1047.65 211.46L1043.03 209.544ZM1116.76 31.848L1115.35 27.0521L1113.06 27.727L1112.14 29.9318L1116.76 31.848ZM1166.59 17.16L1171.21 15.2545L1169.49 11.0905L1165.17 12.364L1166.59 17.16ZM1248.38 215.592L1243.76 217.497L1244.47 219.227L1246.14 220.064L1248.38 215.592ZM1277.75 230.28L1282.21 232.543L1284.49 228.058L1279.99 225.808L1277.75 230.28ZM1130.87 62.664L1135.51 60.7805L1130.91 49.4836L1126.25 60.7541L1130.87 62.664ZM1095.16 149.064L1090.54 147.154L1087.69 154.064H1095.16V149.064ZM1166.01 149.064V154.064H1173.44L1170.64 147.18L1166.01 149.064ZM1268.25 244H1161.11V254H1268.25V244ZM1166.11 249V232.872H1156.11V249H1166.11ZM1163.68 237.166L1195.07 218.446L1189.95 209.858L1158.55 228.578L1163.68 237.166ZM1197.13 212.258L1179.57 169.346L1170.31 173.134L1187.88 216.046L1197.13 212.258ZM1174.94 166.24H1085.95V176.24H1174.94V166.24ZM1081.32 169.341L1065.48 207.933L1074.73 211.731L1090.57 173.139L1081.32 169.341ZM1068 214.367L1112.07 234.815L1116.28 225.745L1072.21 205.297L1068 214.367ZM1109.68 228.072L1100.47 246.792L1109.44 251.208L1118.66 232.488L1109.68 228.072ZM1104.95 244H1011.93V254H1104.95V244ZM1016.93 249V232.872H1006.93V249H1016.93ZM1014.93 236.872L1046.03 213.544L1040.03 205.544L1008.93 228.872L1014.93 236.872ZM1047.65 211.46L1121.38 33.7642L1112.14 29.9318L1038.42 207.628L1047.65 211.46ZM1118.18 36.6439L1168 21.9559L1165.17 12.364L1115.35 27.0521L1118.18 36.6439ZM1161.96 19.0654L1243.76 217.497L1253 213.687L1171.21 15.2545L1161.96 19.0654ZM1246.14 220.064L1275.52 234.752L1279.99 225.808L1250.61 211.12L1246.14 220.064ZM1273.3 228.017L1263.79 246.737L1272.71 251.263L1282.21 232.543L1273.3 228.017ZM1126.25 60.7541L1090.54 147.154L1099.78 150.974L1135.5 64.5739L1126.25 60.7541ZM1095.16 154.064H1166.01V144.064H1095.16V154.064ZM1170.64 147.18L1135.51 60.7805L1126.24 64.5475L1161.38 150.948L1170.64 147.18ZM1403.04 185.064L1399.23 188.306L1399.27 188.346L1399.3 188.386L1403.04 185.064ZM1386.05 170.664L1388.74 166.451L1388.74 166.451L1386.05 170.664ZM1358.4 154.536L1355.98 158.91L1355.98 158.913L1355.99 158.917L1358.4 154.536ZM1323.55 133.8L1320.76 137.946L1320.78 137.96L1320.8 137.974L1323.55 133.8ZM1301.09 113.064L1305.03 109.988L1305.03 109.988L1301.09 113.064ZM1305.12 56.328L1309.01 59.4681L1309.02 59.4516L1309.04 59.435L1305.12 56.328ZM1337.38 28.392L1339.92 32.6966L1339.93 32.6909L1339.94 32.6851L1337.38 28.392ZM1418.02 21.192L1417.19 26.124L1417.19 26.124L1418.02 21.192ZM1456.03 30.408H1461.03V27.0377L1457.91 25.7732L1456.03 30.408ZM1456.03 93.48V98.48H1461.03V93.48H1456.03ZM1428.96 93.48L1424.52 95.7816L1425.92 98.48H1428.96V93.48ZM1402.18 57.192L1398.83 60.9085L1398.85 60.9249L1398.87 60.9412L1402.18 57.192ZM1353.5 51.72L1357.18 55.1053L1357.22 55.0694L1357.25 55.0329L1353.5 51.72ZM1353.79 87.72L1349.94 90.9078L1350 90.9801L1350.06 91.0501L1353.79 87.72ZM1371.36 102.696L1368.59 106.856L1368.65 106.9L1368.72 106.942L1371.36 102.696ZM1399.87 119.112L1397.47 123.496L1397.47 123.497L1399.87 119.112ZM1455.74 159.432L1451.79 162.495L1451.79 162.495L1455.74 159.432ZM1450.56 215.88L1454.35 219.139L1454.36 219.123L1454.38 219.107L1450.56 215.88ZM1416 243.816L1418.43 248.184L1418.44 248.178L1418.45 248.172L1416 243.816ZM1330.75 250.728L1329.99 255.669L1329.99 255.67L1330.75 250.728ZM1290.43 241.512H1285.43V244.912L1288.59 246.162L1290.43 241.512ZM1290.43 178.44V173.44H1285.43V178.44H1290.43ZM1317.5 178.44L1321.9 176.053L1320.48 173.44H1317.5V178.44ZM1346.88 214.728L1343.81 218.678L1343.81 218.678L1346.88 214.728ZM1401.89 220.2L1405.29 223.864L1405.32 223.832L1405.36 223.799L1401.89 220.2ZM1414.95 201.48C1414.95 194.256 1412.02 187.645 1406.78 181.742L1399.3 188.386C1403.27 192.851 1404.95 197.184 1404.95 201.48H1414.95ZM1406.85 181.822C1402.05 176.193 1395.99 171.081 1388.74 166.451L1383.36 174.877C1389.93 179.079 1395.2 183.567 1399.23 188.306L1406.85 181.822ZM1388.74 166.451C1381.7 161.951 1372.38 156.516 1360.81 150.155L1355.99 158.917C1367.46 165.228 1376.57 170.545 1383.36 174.877L1388.74 166.451ZM1360.82 150.162C1346.68 142.325 1335.18 135.482 1326.3 129.626L1320.8 137.974C1329.97 144.022 1341.71 151.003 1355.98 158.91L1360.82 150.162ZM1326.35 129.654C1317.92 123.976 1310.83 117.418 1305.03 109.988L1297.15 116.14C1303.63 124.454 1311.52 131.72 1320.76 137.946L1326.35 129.654ZM1305.03 109.988C1299.53 102.937 1296.87 95.366 1296.87 87.144H1286.87C1286.87 97.738 1290.36 107.447 1297.15 116.14L1305.03 109.988ZM1296.87 87.144C1296.87 79.1123 1300.57 69.923 1309.01 59.4681L1301.23 53.1879C1292 64.621 1286.87 75.9756 1286.87 87.144H1296.87ZM1309.04 59.435C1317.47 48.796 1327.76 39.8842 1339.92 32.6966L1334.83 24.0874C1321.65 31.8758 1310.43 41.5879 1301.2 53.221L1309.04 59.435ZM1339.94 32.6851C1352.32 25.294 1363.24 21.872 1372.8 21.872V11.872C1360.86 11.872 1348.16 16.13 1334.81 24.0989L1339.94 32.6851ZM1372.8 21.872C1385.31 21.872 1400.09 23.2742 1417.19 26.124L1418.84 16.26C1401.38 13.3498 1386.02 11.872 1372.8 11.872V21.872ZM1417.19 26.124C1434.4 28.9915 1446.62 31.9936 1454.16 35.0427L1457.91 25.7732C1449.31 22.2944 1436.19 19.1525 1418.84 16.26L1417.19 26.124ZM1451.03 30.408V93.48H1461.03V30.408H1451.03ZM1456.03 88.48H1428.96V98.48H1456.03V88.48ZM1433.4 91.1784C1425.14 75.2542 1415.87 62.6047 1405.48 53.4428L1398.87 60.9412C1408.07 69.0593 1416.65 80.6018 1424.52 95.7816L1433.4 91.1784ZM1405.52 53.4755C1395.2 44.1843 1383.87 39.232 1371.65 39.232V49.232C1380.93 49.232 1389.95 52.9197 1398.83 60.9085L1405.52 53.4755ZM1371.65 39.232C1362.78 39.232 1355.27 42.174 1349.76 48.4071L1357.25 55.0329C1360.57 51.282 1365.16 49.232 1371.65 49.232V39.232ZM1349.82 48.3347C1344.43 54.1943 1341.88 61.6088 1341.88 70.152H1351.88C1351.88 63.7192 1353.74 58.8457 1357.18 55.1053L1349.82 48.3347ZM1341.88 70.152C1341.88 77.6581 1344.73 84.6089 1349.94 90.9078L1357.64 84.5322C1353.64 79.6951 1351.88 74.9338 1351.88 70.152H1341.88ZM1350.06 91.0501C1355.18 96.786 1361.37 102.048 1368.59 106.856L1374.13 98.5357C1367.52 94.1279 1362 89.406 1357.52 84.3899L1350.06 91.0501ZM1368.72 106.942C1375.93 111.427 1385.53 116.948 1397.47 123.496L1402.28 114.728C1390.41 108.22 1380.99 102.797 1374 98.4496L1368.72 106.942ZM1397.47 123.497C1411.42 131.14 1422.61 137.783 1431.08 143.432L1436.63 135.112C1427.82 129.241 1416.36 122.444 1402.27 114.727L1397.47 123.497ZM1431.08 143.432C1439.3 148.913 1446.19 155.27 1451.79 162.495L1459.7 156.369C1453.39 148.234 1445.69 141.151 1436.63 135.112L1431.08 143.432ZM1451.79 162.495C1457.1 169.349 1459.67 176.732 1459.67 184.776H1469.67C1469.67 174.388 1466.29 164.875 1459.7 156.369L1451.79 162.495ZM1459.67 184.776C1459.67 192.716 1455.76 201.97 1446.74 212.653L1454.38 219.107C1464.17 207.518 1469.67 196.036 1469.67 184.776H1459.67ZM1446.77 212.621C1437.77 223.088 1426.71 232.041 1413.55 239.46L1418.45 248.172C1432.55 240.231 1444.53 230.56 1454.35 219.139L1446.77 212.621ZM1413.57 239.448C1400.6 246.672 1389.16 250.048 1379.14 250.048V260.048C1391.39 260.048 1404.52 255.936 1418.43 248.184L1413.57 239.448ZM1379.14 250.048C1366.03 250.048 1350.17 248.642 1331.51 245.786L1329.99 255.67C1348.97 258.574 1365.36 260.048 1379.14 260.048V250.048ZM1331.52 245.787C1312.94 242.915 1299.97 239.908 1292.27 236.862L1288.59 246.162C1297.4 249.644 1311.31 252.781 1329.99 255.669L1331.52 245.787ZM1295.43 241.512V178.44H1285.43V241.512H1295.43ZM1290.43 183.44H1317.5V173.44H1290.43V183.44ZM1313.11 180.827C1321.81 196.836 1332.01 209.521 1343.81 218.678L1349.94 210.778C1339.48 202.655 1330.1 191.148 1321.9 176.053L1313.11 180.827ZM1343.81 218.678C1355.61 227.829 1367.89 232.688 1380.58 232.688V222.688C1370.61 222.688 1360.42 218.907 1349.94 210.778L1343.81 218.678ZM1380.58 232.688C1390.4 232.688 1398.81 229.883 1405.29 223.864L1398.48 216.536C1394.22 220.501 1388.42 222.688 1380.58 222.688V232.688ZM1405.36 223.799C1411.69 217.698 1414.95 210.169 1414.95 201.48H1404.95C1404.95 207.383 1402.84 212.334 1398.42 216.601L1405.36 223.799ZM1743.22 248.712V253.712H1746.34L1747.71 250.92L1743.22 248.712ZM1641.27 248.712H1636.27V253.712H1641.27V248.712ZM1641.27 232.584L1638.05 228.756L1636.27 230.255V232.584H1641.27ZM1668.34 209.832L1671.56 213.66L1673.34 212.161V209.832H1668.34ZM1668.34 147.048H1673.34V142.048H1668.34V147.048ZM1570.71 147.048V142.048H1565.71V147.048H1570.71ZM1570.71 220.776H1565.71V224.538L1569.33 225.58L1570.71 220.776ZM1602.68 229.992L1607.17 232.2L1609.8 226.842L1604.06 225.188L1602.68 229.992ZM1593.46 248.712V253.712H1596.58L1597.95 250.92L1593.46 248.712ZM1491.51 248.712H1486.51V253.712H1491.51V248.712ZM1491.51 232.584L1488.29 228.756L1486.51 230.255V232.584H1491.51ZM1518.58 209.832L1521.8 213.66L1523.58 212.161V209.832H1518.58ZM1518.58 50.28H1523.58V46.5178L1519.97 45.4756L1518.58 50.28ZM1486.62 41.064L1482.16 38.8005L1479.42 44.1931L1485.23 45.8683L1486.62 41.064ZM1496.12 22.344V17.344H1493.05L1491.66 20.0805L1496.12 22.344ZM1598.07 22.344H1603.07V17.344H1598.07V22.344ZM1598.07 38.472L1601.29 42.2966L1603.07 40.7982V38.472H1598.07ZM1570.71 61.512L1567.49 57.6874L1565.71 59.1858V61.512H1570.71ZM1570.71 124.872H1565.71V129.872H1570.71V124.872ZM1668.34 124.872V129.872H1673.34V124.872H1668.34ZM1668.34 50.28H1673.34V46.5178L1669.73 45.4756L1668.34 50.28ZM1636.38 41.064L1631.92 38.8005L1629.18 44.1931L1634.99 45.8683L1636.38 41.064ZM1645.88 22.344V17.344H1642.81L1641.42 20.0805L1645.88 22.344ZM1747.83 22.344H1752.83V17.344H1747.83V22.344ZM1747.83 38.472L1751.05 42.2966L1752.83 40.7982V38.472H1747.83ZM1720.47 61.512L1717.25 57.6874L1715.47 59.1858V61.512H1720.47ZM1720.47 221.064H1715.47V224.859L1719.13 225.88L1720.47 221.064ZM1752.44 229.992L1756.93 232.2L1759.59 226.796L1753.78 225.176L1752.44 229.992ZM1743.22 243.712H1641.27V253.712H1743.22V243.712ZM1646.27 248.712V232.584H1636.27V248.712H1646.27ZM1644.49 236.412L1671.56 213.66L1665.13 206.004L1638.05 228.756L1644.49 236.412ZM1673.34 209.832V147.048H1663.34V209.832H1673.34ZM1668.34 142.048H1570.71V152.048H1668.34V142.048ZM1565.71 147.048V220.776H1575.71V147.048H1565.71ZM1569.33 225.58L1601.29 234.796L1604.06 225.188L1572.1 215.972L1569.33 225.58ZM1598.19 227.784L1588.98 246.504L1597.95 250.92L1607.17 232.2L1598.19 227.784ZM1593.46 243.712H1491.51V253.712H1593.46V243.712ZM1496.51 248.712V232.584H1486.51V248.712H1496.51ZM1494.73 236.412L1521.8 213.66L1515.37 206.004L1488.29 228.756L1494.73 236.412ZM1523.58 209.832V50.28H1513.58V209.832H1523.58ZM1519.97 45.4756L1488 36.2596L1485.23 45.8683L1517.2 55.0843L1519.97 45.4756ZM1491.07 43.3274L1500.58 24.6074L1491.66 20.0805L1482.16 38.8005L1491.07 43.3274ZM1496.12 27.344H1598.07V17.344H1496.12V27.344ZM1593.07 22.344V38.472H1603.07V22.344H1593.07ZM1594.85 34.6474L1567.49 57.6874L1573.93 65.3365L1601.29 42.2966L1594.85 34.6474ZM1565.71 61.512V124.872H1575.71V61.512H1565.71ZM1570.71 129.872H1668.34V119.872H1570.71V129.872ZM1673.34 124.872V50.28H1663.34V124.872H1673.34ZM1669.73 45.4756L1637.76 36.2596L1634.99 45.8683L1666.96 55.0843L1669.73 45.4756ZM1640.83 43.3274L1650.34 24.6074L1641.42 20.0805L1631.92 38.8005L1640.83 43.3274ZM1645.88 27.344H1747.83V17.344H1645.88V27.344ZM1742.83 22.344V38.472H1752.83V22.344H1742.83ZM1744.61 34.6474L1717.25 57.6874L1723.69 65.3365L1751.05 42.2966L1744.61 34.6474ZM1715.47 61.512V221.064H1725.47V61.512H1715.47ZM1719.13 225.88L1751.09 234.808L1753.78 225.176L1721.82 216.248L1719.13 225.88ZM1747.95 227.784L1738.74 246.504L1747.71 250.92L1756.93 232.2L1747.95 227.784Z" fill="#EAEAEA"/>
</svg>
