<svg width="285" height="63" viewBox="0 0 285 63" fill="none" xmlns="http://www.w3.org/2000/svg">
<path d="M13.848 51.544L13.896 51.4C13.896 51.08 13.624 50.904 13.08 50.872C12.408 50.456 11.688 49.752 10.92 48.76C10.152 47.736 9.672 46.952 9.48 46.408C9.384 46.152 9.336 45.976 9.336 45.88C9.336 45.72 9.4 45.608 9.528 45.544C9.656 45.448 9.816 45.368 10.008 45.304C10.2 45.208 10.344 45.144 10.44 45.112C11.016 44.728 11.448 44.536 11.736 44.536C12.056 44.536 12.328 44.744 12.552 45.16C13 45.96 13.72 46.632 14.712 47.176C15.704 47.688 16.808 47.944 18.024 47.944C19.112 47.944 20.088 47.752 20.952 47.368C21.784 46.984 22.2 46.424 22.2 45.688C22.2 45.144 21.96 44.488 21.48 43.72C21.416 43.528 21.304 43.352 21.144 43.192C20.984 43.032 20.792 42.872 20.568 42.712C20.056 42.328 19.496 41.832 18.888 41.224C18.376 41.032 17.848 40.776 17.304 40.456L16.296 39.976C15.496 39.592 14.6 38.984 13.608 38.152C12.616 37.288 11.928 36.488 11.544 35.752C10.84 35.08 10.488 34.056 10.488 32.68C10.488 31.176 10.84 29.768 11.544 28.456C11.928 27.592 12.856 26.264 14.328 24.472C15.8 22.68 16.888 21.56 17.592 21.112L18.84 19.912C18.872 19.784 18.92 19.72 18.984 19.72C19.048 19.688 19.096 19.672 19.128 19.672C19.224 19.608 19.56 19.464 20.136 19.24C20.712 18.984 21.32 18.552 21.96 17.944C23.912 16.984 25.64 16.312 27.144 15.928C28.68 15.512 29.96 15.304 30.984 15.304C32.232 15.368 33.384 15.816 34.44 16.648C35.528 17.48 36.152 18.44 36.312 19.528C36.376 19.848 36.408 20.104 36.408 20.296C36.408 21.48 35.928 22.808 34.968 24.28C34.008 25.752 32.984 26.792 31.896 27.4C31.416 27.624 30.952 27.736 30.504 27.736C29.96 27.736 29.512 27.592 29.16 27.304C28.84 27.016 28.696 26.648 28.728 26.2C28.728 25.912 28.824 25.592 29.016 25.24C29.24 24.856 29.72 24.248 30.456 23.416C31.544 21.816 32.088 20.664 32.088 19.96C32.088 19.48 31.8 19.192 31.224 19.096C30.872 19 29.912 19.144 28.344 19.528C26.808 19.88 26.04 20.136 26.04 20.296C26.04 20.328 26.024 20.392 25.992 20.488C25.992 20.552 25.944 20.568 25.848 20.536C25.72 20.504 24.808 21.032 23.112 22.12C21.448 23.208 20.584 23.832 20.52 23.992C20.488 24.152 20.36 24.328 20.136 24.52C19.944 24.68 19.704 24.824 19.416 24.952C18.84 25.304 18.312 25.784 17.832 26.392C17.384 27 16.792 27.96 16.056 29.272C15.672 29.816 15.352 30.408 15.096 31.048C14.872 31.688 14.76 32.264 14.76 32.776C14.76 33.128 14.808 33.432 14.904 33.688C15.032 34.168 15.368 34.616 15.912 35.032C16.488 35.416 17.576 36.088 19.176 37.048C20.808 37.976 22.28 38.968 23.592 40.024C24.904 41.048 25.704 41.864 25.992 42.472C26.504 43.208 26.76 44.168 26.76 45.352C26.76 46.28 26.632 47.16 26.376 47.992C26.088 48.6 25.72 49.16 25.272 49.672C24.824 50.216 24.424 50.472 24.072 50.44C23.752 50.536 23.48 50.648 23.256 50.776C23.032 50.936 22.84 51.048 22.68 51.112C22.296 51.336 21.304 51.56 19.704 51.784C18.136 52.04 16.824 52.152 15.768 52.12L13.848 51.544ZM36.2104 50.68C34.9624 49.752 34.0024 48.92 33.3304 48.184C32.6584 47.448 32.3064 46.744 32.2744 46.072C32.2424 45.912 32.2264 45.624 32.2264 45.208C32.2264 44.312 32.3064 43.192 32.4664 41.848C32.6264 40.504 32.7864 39.432 32.9464 38.632C33.0744 38.504 33.1384 38.312 33.1384 38.056C33.1704 37.8 33.1704 37.64 33.1384 37.576C33.1384 37.48 33.2184 37.16 33.3784 36.616C33.7624 35.432 34.0344 34.44 34.1944 33.64C35.0584 31.016 35.9064 28.92 36.7384 27.352C37.5704 25.784 38.4984 24.312 39.5224 22.936C41.6984 20.696 44.0184 19 46.4824 17.848C47.7304 17.112 48.6264 16.744 49.1704 16.744C49.2664 16.744 49.4104 16.776 49.6024 16.84C53.5384 17.704 55.8904 20.2 56.6584 24.328C56.9464 26.28 57.0904 27.752 57.0904 28.744C57.0904 30.344 56.8024 31.96 56.2264 33.592C55.6504 35.224 54.6104 37.272 53.1064 39.736C51.8264 42.296 50.3704 44.488 48.7384 46.312C47.1384 48.104 45.5224 49.448 43.8904 50.344C42.2904 51.24 40.7864 51.688 39.3784 51.688C38.1304 51.688 37.0744 51.352 36.2104 50.68ZM40.0504 47.512C40.8184 47.416 41.4104 47.272 41.8264 47.08C42.2744 46.888 42.7224 46.568 43.1704 46.12C43.6504 45.64 44.4184 44.792 45.4744 43.576C46.8184 42.04 47.7624 40.92 48.3064 40.216C48.8504 39.48 49.3464 38.568 49.7944 37.48C50.2744 36.392 50.8024 34.824 51.3784 32.776L51.6664 31.672C51.8584 31 51.9864 30.456 52.0504 30.04C52.1464 29.592 52.1944 29.112 52.1944 28.6L52.1464 25.576C52.1144 25 52.0024 24.376 51.8104 23.704C51.6184 23.032 51.3944 22.552 51.1384 22.264C50.8824 21.976 50.5304 21.736 50.0824 21.544C49.6664 21.32 49.2344 21.208 48.7864 21.208C48.4664 21.208 48.0984 21.288 47.6824 21.448C47.0744 21.704 46.2264 22.392 45.1384 23.512C44.0504 24.6 43.0744 25.72 42.2104 26.872C41.3784 28.024 40.9624 28.792 40.9624 29.176C40.9624 29.208 40.9464 29.304 40.9144 29.464C40.8824 29.624 40.8184 29.768 40.7224 29.896C39.8904 30.792 39.0424 32.68 38.1784 35.56C37.3464 38.44 36.8664 40.952 36.7384 43.096C36.7064 44.024 36.7064 44.664 36.7384 45.016C36.8024 45.368 36.9784 45.768 37.2664 46.216C37.4904 46.568 37.8904 46.904 38.4664 47.224C39.0744 47.512 39.6024 47.608 40.0504 47.512ZM66.5408 51.448C65.5808 51.512 64.4288 51.4 63.0848 51.112C61.7408 50.856 60.4608 50.296 59.2448 49.432C58.0608 48.6 57.3088 47.416 56.9888 45.88C56.7648 44.792 56.6528 43.592 56.6528 42.28C56.6528 39.624 57.0688 36.792 57.9008 33.784C58.2208 32.664 59.0528 30.936 60.3968 28.6C61.7728 26.264 63.0528 24.36 64.2368 22.888C65.0048 21.96 66.2048 20.824 67.8368 19.48C69.5008 18.104 70.6048 17.304 71.1488 17.08C71.5968 16.856 72.1088 16.744 72.6848 16.744C73.0688 16.744 73.4688 16.792 73.8848 16.888C74.5248 16.952 75.2288 17.24 75.9968 17.752C76.7968 18.264 77.2288 18.728 77.2928 19.144C77.2928 19.272 77.3568 19.336 77.4848 19.336C77.6448 19.336 77.9328 19.256 78.3488 19.096C78.5408 18.872 78.8608 18.68 79.3088 18.52C79.7568 18.36 80.1728 18.28 80.5568 18.28C80.9728 18.28 81.1968 18.376 81.2288 18.568C81.1648 18.664 81.1328 18.776 81.1328 18.904C81.1328 19.096 81.1968 19.24 81.3248 19.336C81.4848 19.272 81.4528 19.768 81.2288 20.824C81.0048 21.848 80.7488 22.616 80.4608 23.128L80.3168 23.608V23.752C80.3168 23.976 80.1728 24.232 79.8848 24.52C79.6928 24.808 79.4208 25.688 79.0688 27.16C78.7168 28.632 78.5568 29.528 78.5887 29.848C78.6208 29.976 78.5408 30.072 78.3488 30.136C78.1888 30.2 77.9648 30.232 77.6768 30.232C77.0688 30.232 76.5088 30.136 75.9968 29.944C75.4848 29.752 75.1168 29.544 74.8928 29.32C74.6688 29.096 74.5568 28.776 74.5568 28.36C74.5568 27.976 74.6848 27.352 74.9408 26.488C75.4528 24.76 75.7087 23.608 75.7087 23.032C75.7087 22.392 75.5168 21.928 75.1328 21.64C75.0368 21.448 74.8448 21.304 74.5568 21.208C74.3008 21.112 74.0128 21.064 73.6928 21.064C73.3728 21.064 73.0528 21.144 72.7328 21.304C71.9968 21.592 70.9088 22.424 69.4688 23.8C68.0288 25.144 66.7968 26.52 65.7728 27.928C64.2048 30.104 63.0208 32.296 62.2208 34.504C61.4528 36.68 61.0688 38.776 61.0688 40.792C61.0688 42.392 61.3088 43.896 61.7888 45.304C61.8528 45.464 62.0448 45.752 62.3648 46.168C62.6848 46.552 62.9408 46.808 63.1328 46.936C63.6448 47.064 64.3008 47.128 65.1008 47.128C65.7408 47.128 66.5088 47.08 67.4048 46.984C68.6848 46.76 69.6448 46.408 70.2848 45.928C70.9568 45.448 71.6448 44.712 72.3488 43.72C72.6368 43.304 72.9728 43.096 73.3568 43.096C73.7728 43.096 74.1568 43.32 74.5088 43.768C74.8608 44.216 75.0848 44.744 75.1808 45.352C75.1808 45.64 74.8928 46.232 74.3168 47.128C73.7728 47.992 73.3568 48.456 73.0688 48.52C72.9408 48.552 72.8608 48.6 72.8288 48.664C72.8288 48.696 72.8448 48.776 72.8768 48.904C72.8768 49.096 72.5248 49.368 71.8208 49.72C71.1168 50.104 70.2528 50.456 69.2288 50.776C68.2368 51.128 67.3408 51.352 66.5408 51.448ZM83.4469 52.264C83.2549 52.04 82.9989 51.88 82.6789 51.784C82.3909 51.688 81.9749 51.64 81.4309 51.64C81.2069 51.64 80.6469 51.672 79.7509 51.736C79.6549 51.768 79.4949 51.784 79.2709 51.784C78.6309 51.784 78.0229 51.624 77.4469 51.304C76.9029 50.984 76.6789 50.632 76.7749 50.248C76.8069 49.8 77.2069 49.368 77.9749 48.952C78.7749 48.504 79.7989 48.248 81.0469 48.184L83.1109 48.04L83.5909 47.032L84.5509 43.48C84.8389 42.552 85.1269 41.528 85.4149 40.408C86.3109 37.464 86.8549 35.528 87.0469 34.6C87.2069 34.184 87.4949 33.272 87.9109 31.864C88.3269 30.424 88.5829 29.448 88.6789 28.936C90.0229 24.296 90.5509 21.976 90.2629 21.976C89.9749 21.944 89.1269 22.024 87.7189 22.216C86.3109 22.408 85.5429 22.552 85.4149 22.648C85.3189 22.776 85.1909 22.84 85.0309 22.84C84.8069 22.84 84.5669 22.744 84.3109 22.552C84.0869 22.36 83.9269 22.152 83.8309 21.928C83.7989 21.8 83.7829 21.544 83.7829 21.16C83.7829 20.584 83.8629 20.232 84.0229 20.104C84.3429 19.848 85.1749 19.544 86.5189 19.192C87.8629 18.84 89.1909 18.552 90.5029 18.328C91.0469 18.264 91.5909 18.136 92.1349 17.944C92.6789 17.72 93.0949 17.48 93.3829 17.224C94.0229 16.968 94.5829 16.856 95.0629 16.888C95.2869 17.016 95.6869 17.08 96.2629 17.08C96.9029 17.08 97.6069 17.032 98.3749 16.936C99.3669 16.808 100.231 16.744 100.967 16.744C101.735 16.744 102.279 16.856 102.599 17.08C102.919 17.272 103.159 17.624 103.319 18.136C103.447 18.648 103.511 19 103.511 19.192C103.511 19.864 103.175 20.184 102.503 20.152C101.991 20.312 100.679 20.456 98.5669 20.584C96.7429 20.808 95.7349 21.08 95.5429 21.4C95.3829 21.56 95.2549 21.704 95.1589 21.832C95.0949 21.96 95.0149 22.088 94.9189 22.216C95.0149 22.472 94.7749 23.544 94.1989 25.432L93.5269 27.64C93.3029 28.312 92.9509 29.416 92.4709 30.952C92.0229 32.456 91.7349 33.368 91.6069 33.688C91.3509 34.456 91.2229 35.016 91.2229 35.368L89.2069 43C88.5029 45.56 88.0709 47.176 87.9109 47.848C88.1349 47.848 88.6149 47.816 89.3509 47.752C90.0869 47.688 90.8069 47.608 91.5109 47.512C92.5349 47.384 93.3669 47.32 94.0069 47.32C94.5829 47.32 94.9509 47.384 95.1109 47.512C95.2709 47.608 95.3669 47.768 95.3989 47.992C95.4309 48.184 95.4629 48.344 95.4949 48.472C95.9109 48.984 96.1189 49.4 96.1189 49.72C96.1189 50.52 94.8869 50.936 92.4229 50.968L91.0789 51.064C88.9349 51.224 87.5269 51.352 86.8549 51.448C86.2149 51.576 85.8789 51.768 85.8469 52.024C85.8469 52.216 85.7189 52.408 85.4629 52.6C85.2069 52.792 84.9189 52.888 84.5989 52.888C84.2149 52.888 83.8309 52.68 83.4469 52.264ZM114.475 15.736C115.563 15.736 116.571 16.024 117.499 16.6C118.459 17.144 119.211 17.928 119.755 18.952C120.331 19.944 120.619 21.08 120.619 22.36C120.619 24.152 120.507 26.504 120.283 29.416C120.059 32.296 119.771 35.032 119.419 37.624C119.035 40.312 118.699 43.768 118.411 47.992C118.219 50.232 118.059 51.768 117.931 52.6C117.835 53.464 117.643 53.96 117.355 54.088L117.403 54.184C117.403 54.312 117.291 54.424 117.067 54.52C116.843 54.616 116.571 54.664 116.251 54.664C115.675 54.664 115.099 54.552 114.523 54.328C113.947 54.104 113.659 53.624 113.659 52.888C113.659 52.472 113.739 51.464 113.899 49.864C114.251 46.856 114.459 44.392 114.523 42.472L114.811 40.36H113.611C113.067 40.52 112.283 40.6 111.259 40.6L108.235 40.552C107.371 40.552 106.779 40.584 106.459 40.648C106.171 40.68 105.947 40.808 105.787 41.032C105.627 41.224 105.435 41.624 105.211 42.232C105.051 42.744 104.715 43.528 104.203 44.584C103.083 47.304 102.091 49.24 101.227 50.392C100.363 51.544 99.5148 52.12 98.6828 52.12C98.4588 52.12 98.0908 52.024 97.5788 51.832C97.0988 51.64 96.8588 51.384 96.8588 51.064C96.8588 50.616 97.1948 49.688 97.8668 48.28C98.5708 46.872 99.0988 45.928 99.4508 45.448C99.4828 45.448 99.4828 45.432 99.4508 45.4C99.4188 45.336 99.4028 45.24 99.4028 45.112C99.4028 44.408 99.8188 43.24 100.651 41.608C100.779 41.224 100.907 40.856 101.035 40.504C101.195 40.12 101.275 39.88 101.275 39.784L102.187 38.008C102.187 37.816 102.299 37.416 102.523 36.808C102.779 36.168 103.083 35.48 103.435 34.744C103.435 34.264 103.531 33.8 103.723 33.352C103.915 32.872 104.171 32.36 104.491 31.816C104.843 31.176 105.019 30.76 105.019 30.568C105.019 30.504 105.051 30.36 105.115 30.136C105.211 29.912 105.387 29.544 105.643 29.032C105.579 29.032 105.547 29.016 105.547 28.984C105.547 28.952 105.675 28.776 105.931 28.456C105.931 28.168 106.043 27.848 106.267 27.496C106.523 27.112 106.939 26.056 107.515 24.328L108.475 22.264C108.731 21.848 109.067 21.064 109.483 19.912L109.867 18.904L110.251 17.848C110.347 17.72 110.491 17.48 110.683 17.128C110.875 16.776 111.179 16.488 111.595 16.264C112.011 16.04 112.571 15.912 113.275 15.88C113.659 15.784 114.059 15.736 114.475 15.736ZM115.483 34.072C115.483 33.72 115.595 32.424 115.819 30.184C116.267 25.576 116.507 22.744 116.539 21.688C116.539 21.208 116.523 20.936 116.491 20.872C116.491 20.584 116.235 20.312 115.723 20.056C115.211 19.8 114.843 19.672 114.619 19.672C114.331 19.672 114.091 19.832 113.899 20.152C113.707 20.472 113.515 20.872 113.323 21.352C113.131 21.8 113.003 22.12 112.939 22.312L112.507 23.416C111.963 24.76 111.323 26.408 110.587 28.36C109.851 30.28 109.435 31.432 109.339 31.816C109.147 32.008 108.811 32.616 108.331 33.64C107.883 34.632 107.659 35.256 107.659 35.512C107.659 36.312 108.059 36.712 108.859 36.712C108.987 36.712 109.243 36.696 109.627 36.664C110.043 36.6 110.491 36.488 110.971 36.328H111.643C112.155 36.328 112.667 36.248 113.179 36.088C114.011 35.96 114.555 35.864 114.811 35.8C115.099 35.736 115.275 35.592 115.339 35.368C115.435 35.144 115.483 34.712 115.483 34.072ZM128.405 51.352C127.349 51.192 126.389 50.856 125.525 50.344C124.693 49.832 124.133 49.176 123.845 48.376C123.781 48.216 123.621 47.816 123.365 47.176C123.141 46.536 123.029 45.848 123.029 45.112C123.029 44.568 123.125 44.008 123.317 43.432C123.541 41.064 124.037 38.792 124.805 36.616C124.837 36.456 124.917 36.152 125.045 35.704C125.205 35.256 125.397 34.744 125.621 34.168C126.133 32.6 126.933 30.712 128.021 28.504C129.109 26.264 130.245 24.232 131.429 22.408C132.613 20.584 133.557 19.4 134.261 18.856C134.517 18.632 134.933 18.424 135.509 18.232C136.117 18.04 136.645 17.944 137.093 17.944C137.637 17.944 137.909 18.072 137.909 18.328C137.845 18.488 137.813 18.6 137.813 18.664C137.813 18.696 137.877 18.728 138.005 18.76C138.197 18.76 138.293 18.904 138.293 19.192C138.293 19.608 138.085 20.152 137.669 20.824C137.285 21.464 136.853 21.928 136.373 22.216C136.373 22.28 136.325 22.408 136.229 22.6C136.133 22.792 135.941 23 135.653 23.224C135.557 23.544 135.445 23.832 135.317 24.088C135.189 24.344 135.109 24.504 135.077 24.568C135.045 24.632 134.949 24.776 134.789 25C134.661 25.224 134.517 25.512 134.357 25.864C133.717 26.664 133.397 27.192 133.397 27.448C133.301 27.672 133.093 28.088 132.773 28.696C132.485 29.272 132.341 29.608 132.341 29.704L132.005 29.944C132.005 30.168 131.893 30.568 131.669 31.144C131.477 31.688 131.221 32.184 130.901 32.632C130.677 33.144 130.325 34.088 129.845 35.464C129.653 36.2 129.477 36.696 129.317 36.952C129.253 37.08 129.205 37.256 129.173 37.48C129.045 37.608 128.901 37.944 128.741 38.488C128.581 39.032 128.469 39.688 128.405 40.456L127.541 42.904C127.477 43.224 127.445 43.48 127.445 43.672C127.445 43.96 127.477 44.36 127.541 44.872C127.637 45.352 127.701 45.752 127.733 46.072C127.989 46.392 128.197 46.616 128.357 46.744C128.549 46.84 128.869 46.888 129.317 46.888C129.701 46.888 130.037 46.872 130.325 46.84C130.421 46.872 130.581 46.888 130.805 46.888C131.093 46.888 131.477 46.872 131.957 46.84C132.437 46.776 132.805 46.76 133.061 46.792C133.989 46.792 135.029 46.696 136.181 46.504C136.373 46.472 136.613 46.456 136.901 46.456C137.541 46.456 138.037 46.536 138.389 46.696C138.741 46.856 139.061 47.08 139.349 47.368C139.509 47.56 139.589 47.816 139.589 48.136C139.589 48.52 139.413 48.872 139.061 49.192C138.741 49.544 138.341 49.784 137.861 49.912C136.005 50.392 134.165 50.76 132.341 51.016C130.549 51.304 129.237 51.416 128.405 51.352ZM153.891 51.784C153.411 51.784 152.915 51.464 152.403 50.824C151.891 50.216 151.635 49.448 151.635 48.52C151.635 47.784 151.811 47.064 152.163 46.36C152.803 45.016 153.443 43.928 154.083 43.096C154.307 42.776 154.467 42.504 154.563 42.28C154.691 42.056 154.771 41.752 154.803 41.368C155.251 40.792 155.843 39.752 156.579 38.248C157.827 36.232 159.603 33.128 161.907 28.936C162.227 28.36 162.851 27.224 163.779 25.528C164.739 23.832 165.379 22.824 165.699 22.504L165.939 22.168C165.843 22.328 166.003 21.96 166.419 21.064C166.867 20.168 167.331 19.368 167.811 18.664C168.323 17.928 168.771 17.56 169.155 17.56C169.571 17.56 170.051 17.736 170.595 18.088C171.139 18.408 171.603 18.904 171.987 19.576C172.403 20.216 172.611 20.984 172.611 21.88C172.611 22.264 172.595 22.568 172.563 22.792L172.083 26.056L171.843 27.112C171.427 29.224 170.803 32.12 169.971 35.8C169.235 39.064 168.867 41.032 168.867 41.704C168.867 41.896 168.899 42.056 168.963 42.184C169.027 42.28 169.107 42.328 169.203 42.328C169.267 42.328 169.427 42.232 169.683 42.04C169.939 41.816 170.163 41.496 170.355 41.08L170.979 40.12L171.795 38.92C172.691 37.672 173.795 35.992 175.107 33.88C176.419 31.736 178.547 28.072 181.491 22.888C182.099 21.992 182.595 21.208 182.979 20.536C183.491 19.704 183.987 18.92 184.467 18.184C184.947 17.448 185.315 16.984 185.571 16.792C185.891 16.536 186.291 16.408 186.771 16.408C187.251 16.44 187.747 16.616 188.259 16.936C188.803 17.256 189.251 17.704 189.603 18.28C189.987 18.856 190.179 19.48 190.179 20.152C190.179 20.92 189.939 22.328 189.459 24.376C189.011 26.424 188.483 28.408 187.875 30.328C187.747 31 187.347 32.584 186.675 35.08C186.163 36.936 185.779 38.408 185.523 39.496C185.299 40.584 185.187 41.464 185.187 42.136V42.52C184.707 43.384 184.467 45.112 184.467 47.704C184.339 48.76 184.099 49.576 183.747 50.152C183.395 50.76 183.107 51.064 182.883 51.064L182.739 51.016C182.579 51.016 182.419 51.08 182.259 51.208C182.131 51.368 181.939 51.448 181.683 51.448C180.883 51.448 180.355 51.16 180.099 50.584C179.875 50.008 179.763 49.224 179.763 48.232C179.763 47.656 179.779 47.176 179.811 46.792C179.907 45.96 180.931 41.624 182.883 33.784C184.419 27.64 185.187 24.424 185.187 24.136L184.515 25.288C183.875 26.504 183.075 27.928 182.115 29.56L178.755 35.848C178.339 36.424 177.987 36.984 177.699 37.528C177.443 38.072 177.299 38.392 177.267 38.488C176.883 39.256 176.115 40.36 174.963 41.8C174.579 42.28 174.355 42.584 174.291 42.712C174.131 43.064 173.619 43.688 172.755 44.584C171.891 45.448 170.979 46.248 170.019 46.984C169.059 47.688 168.259 48.04 167.619 48.04C166.755 48.04 165.971 47.624 165.267 46.792C164.595 45.96 164.259 44.952 164.259 43.768C164.259 42.904 164.419 41.464 164.739 39.448C165.251 37.24 165.795 35 166.371 32.728C166.947 30.456 167.347 28.968 167.571 28.264C167.667 27.976 167.715 27.656 167.715 27.304C167.715 27.08 167.683 26.936 167.619 26.872C167.587 26.872 167.539 26.904 167.475 26.968C167.443 27.032 167.395 27.112 167.331 27.208C166.851 27.976 166.099 29.32 165.075 31.24C164.051 33.16 162.947 35.416 161.763 38.008C157.187 46.424 154.563 51.016 153.891 51.784ZM196.3 50.872C195.532 50.808 194.764 50.568 193.996 50.152C193.228 49.736 192.524 49.304 191.884 48.856C191.244 48.408 190.812 48.104 190.588 47.944C190.044 47.4 189.628 46.824 189.34 46.216C189.052 45.576 188.812 44.744 188.62 43.72C188.556 43.336 188.524 43 188.524 42.712C188.524 41.752 188.684 40.584 189.004 39.208C189.356 37.8 189.708 36.712 190.06 35.944C190.764 34.248 192.316 31.528 194.716 27.784C194.844 27.656 194.924 27.576 194.956 27.544C195.02 27.48 195.036 27.448 195.004 27.448C195.004 27.416 195.004 27.4 195.004 27.4C195.004 27.176 195.468 26.184 196.396 24.424C196.94 23.848 197.212 23.352 197.212 22.936C197.212 22.712 197.164 22.536 197.068 22.408C196.972 22.28 197.1 22.008 197.452 21.592C197.804 21.144 198.284 20.664 198.892 20.152C199.532 19.608 200.204 19.144 200.908 18.76C201.772 18.088 202.62 17.752 203.452 17.752C203.708 17.752 203.916 17.8 204.076 17.896C204.268 17.96 204.38 18.072 204.412 18.232C204.412 18.424 205.052 18.36 206.332 18.04C206.908 17.912 207.324 17.832 207.58 17.8C207.708 17.64 208.028 17.512 208.54 17.416C209.084 17.288 209.836 17.16 210.796 17.032C211.308 17.064 211.932 17.064 212.668 17.032C213.436 17 213.932 16.968 214.156 16.936C214.38 16.872 214.7 17.016 215.116 17.368C215.564 17.72 215.916 18.168 216.172 18.712C216.236 18.904 216.268 19.048 216.268 19.144C216.268 19.624 215.964 20.04 215.356 20.392C214.748 20.712 213.868 20.936 212.716 21.064C211.532 21.224 210.492 21.384 209.596 21.544C208.7 21.704 207.58 21.928 206.236 22.216L205.228 22.408C204.236 22.568 203.5 22.776 203.02 23.032C202.54 23.288 202.028 23.848 201.484 24.712C201.26 24.872 200.972 25.288 200.62 25.96C200.268 26.6 199.916 27.272 199.564 27.976L198.604 29.272C197.868 30.264 197.404 30.92 197.212 31.24C197.052 31.528 197.02 31.736 197.116 31.864C197.244 31.896 197.468 31.944 197.788 32.008C198.14 32.072 198.428 32.12 198.652 32.152C198.94 31.992 199.34 31.88 199.852 31.816C200.364 31.752 200.732 31.688 200.956 31.624L202.012 31.336C203.996 30.824 205.452 30.456 206.38 30.232C207.308 30.008 207.996 29.864 208.444 29.8C208.604 29.672 208.796 29.608 209.02 29.608C209.372 29.608 209.708 29.784 210.028 30.136C210.38 30.456 210.636 30.84 210.796 31.288C210.924 31.736 210.988 32.024 210.988 32.152C210.988 32.696 210.668 33.112 210.028 33.4C209.388 33.656 208.108 34.008 206.188 34.456C203.404 35.128 201.66 35.56 200.956 35.752C198.876 36.36 197.34 36.664 196.348 36.664C195.516 36.664 195.116 36.392 195.148 35.848C194.86 35.688 194.524 35.976 194.14 36.712C193.756 37.448 193.42 38.36 193.132 39.448C192.876 40.536 192.748 41.48 192.748 42.28C192.748 42.696 192.796 43.048 192.892 43.336C193.18 44.104 193.612 44.76 194.188 45.304C194.764 45.816 195.564 46.216 196.588 46.504C196.812 46.536 197.084 46.568 197.404 46.6C197.756 46.632 198.156 46.648 198.604 46.648C199.244 46.648 199.884 46.52 200.524 46.264C203.02 45.848 204.78 45.272 205.804 44.536C205.964 44.472 206.108 44.36 206.236 44.2C206.396 44.04 206.54 43.96 206.668 43.96L206.62 44.056C206.62 44.088 206.716 44.024 206.908 43.864C207.1 43.672 207.308 43.48 207.532 43.288C208.428 42.52 209.42 42.136 210.508 42.136C210.892 42.136 211.212 42.2 211.468 42.328C211.756 42.424 211.916 42.52 211.948 42.616C212.14 42.936 212.044 43.448 211.66 44.152C211.276 44.856 210.668 45.592 209.836 46.36C209.036 47.128 208.14 47.8 207.148 48.376C205.58 49.208 203.82 49.816 201.868 50.2C199.948 50.616 198.092 50.84 196.3 50.872ZM221.317 52.072C219.781 52.072 218.517 51.816 217.525 51.304C216.533 50.824 215.925 49.912 215.701 48.568C215.733 47.768 215.765 47.272 215.797 47.08C215.861 46.856 215.989 46.744 216.181 46.744C216.469 46.744 216.613 46.584 216.613 46.264C216.645 45.464 216.805 44.472 217.093 43.288C217.413 42.072 217.717 41.256 218.005 40.84C218.325 39.656 218.901 37.784 219.733 35.224C220.597 32.632 221.285 30.6 221.797 29.128C221.829 29 222.021 28.552 222.373 27.784C222.917 26.472 223.221 25.704 223.285 25.48L223.573 24.568C223.637 24.408 223.781 23.976 224.005 23.272C224.261 22.536 224.501 21.992 224.725 21.64L225.541 20.2L224.245 19.096C223.797 18.648 223.573 18.2 223.573 17.752C223.573 17.272 223.877 16.856 224.485 16.504C225.093 16.12 225.829 15.864 226.693 15.736C227.109 15.672 227.893 15.64 229.045 15.64C230.965 15.64 232.661 15.752 234.133 15.976C234.677 16.072 235.397 16.344 236.293 16.792C237.189 17.24 237.813 17.64 238.165 17.992C238.197 18.024 238.277 18.088 238.405 18.184C238.533 18.28 238.645 18.328 238.741 18.328C238.965 18.456 239.333 18.856 239.845 19.528C240.357 20.168 240.837 20.888 241.285 21.688C241.733 22.456 242.005 23.128 242.101 23.704C242.293 24.664 242.389 25.688 242.389 26.776C242.325 28.376 242.197 29.88 242.005 31.288C241.877 32.184 241.637 33.24 241.285 34.456C240.933 35.64 240.581 36.696 240.229 37.624C239.877 38.552 239.669 39.016 239.605 39.016C239.445 39.016 239.333 39.064 239.269 39.16C239.237 39.224 239.221 39.336 239.221 39.496C239.189 39.944 238.837 40.696 238.165 41.752C237.525 42.776 236.773 43.8 235.909 44.824C235.045 45.816 234.293 46.504 233.653 46.888C232.213 48.488 230.309 49.752 227.941 50.68C225.605 51.608 223.397 52.072 221.317 52.072ZM222.517 47.224C224.021 47.224 225.125 47.096 225.829 46.84C226.629 46.648 227.573 46.216 228.661 45.544C229.749 44.872 230.725 44.104 231.589 43.24C232.709 42.088 233.653 40.952 234.421 39.832C235.189 38.712 235.925 37.256 236.629 35.464C237.141 34.248 237.525 32.984 237.781 31.672C238.037 30.36 238.165 29.144 238.165 28.024C238.165 26.2 237.813 24.696 237.109 23.512C236.437 22.296 235.525 21.48 234.373 21.064C233.509 20.744 232.581 20.584 231.589 20.584C230.757 20.584 230.213 20.648 229.957 20.776C229.285 20.776 228.485 22.424 227.557 25.72C227.301 26.648 226.949 27.656 226.501 28.744C226.085 29.768 225.701 30.888 225.349 32.104C224.901 32.936 224.501 33.864 224.149 34.888C223.829 35.88 223.557 36.744 223.333 37.48L223.045 38.392C222.661 39.096 222.261 40.44 221.845 42.424C221.461 44.376 221.269 45.768 221.269 46.6C221.269 47.016 221.685 47.224 222.517 47.224ZM247.041 52.264C246.849 52.04 246.593 51.88 246.273 51.784C245.985 51.688 245.569 51.64 245.025 51.64C244.801 51.64 244.241 51.672 243.345 51.736C243.249 51.768 243.089 51.784 242.865 51.784C242.225 51.784 241.617 51.624 241.041 51.304C240.497 50.984 240.273 50.632 240.369 50.248C240.401 49.8 240.801 49.368 241.569 48.952C242.369 48.504 243.393 48.248 244.641 48.184L246.705 48.04L247.185 47.032L248.145 43.48C248.433 42.552 248.721 41.528 249.009 40.408C249.905 37.464 250.449 35.528 250.641 34.6C250.801 34.184 251.089 33.272 251.505 31.864C251.921 30.424 252.177 29.448 252.273 28.936C253.617 24.296 254.145 21.976 253.857 21.976C253.569 21.944 252.721 22.024 251.313 22.216C249.905 22.408 249.137 22.552 249.009 22.648C248.913 22.776 248.785 22.84 248.625 22.84C248.401 22.84 248.161 22.744 247.905 22.552C247.681 22.36 247.521 22.152 247.425 21.928C247.393 21.8 247.377 21.544 247.377 21.16C247.377 20.584 247.457 20.232 247.617 20.104C247.937 19.848 248.769 19.544 250.113 19.192C251.457 18.84 252.785 18.552 254.097 18.328C254.641 18.264 255.185 18.136 255.729 17.944C256.273 17.72 256.689 17.48 256.977 17.224C257.617 16.968 258.177 16.856 258.657 16.888C258.881 17.016 259.281 17.08 259.857 17.08C260.497 17.08 261.201 17.032 261.969 16.936C262.961 16.808 263.825 16.744 264.561 16.744C265.329 16.744 265.873 16.856 266.193 17.08C266.513 17.272 266.753 17.624 266.913 18.136C267.041 18.648 267.105 19 267.105 19.192C267.105 19.864 266.769 20.184 266.097 20.152C265.585 20.312 264.273 20.456 262.161 20.584C260.337 20.808 259.329 21.08 259.137 21.4C258.977 21.56 258.849 21.704 258.753 21.832C258.689 21.96 258.609 22.088 258.513 22.216C258.609 22.472 258.369 23.544 257.793 25.432L257.121 27.64C256.897 28.312 256.545 29.416 256.065 30.952C255.617 32.456 255.329 33.368 255.201 33.688C254.945 34.456 254.817 35.016 254.817 35.368L252.801 43C252.097 45.56 251.665 47.176 251.505 47.848C251.729 47.848 252.209 47.816 252.945 47.752C253.681 47.688 254.401 47.608 255.105 47.512C256.129 47.384 256.961 47.32 257.601 47.32C258.177 47.32 258.545 47.384 258.705 47.512C258.865 47.608 258.961 47.768 258.993 47.992C259.025 48.184 259.057 48.344 259.089 48.472C259.505 48.984 259.713 49.4 259.713 49.72C259.713 50.52 258.481 50.936 256.017 50.968L254.673 51.064C252.529 51.224 251.121 51.352 250.449 51.448C249.809 51.576 249.473 51.768 249.441 52.024C249.441 52.216 249.313 52.408 249.057 52.6C248.801 52.792 248.513 52.888 248.193 52.888C247.809 52.888 247.425 52.68 247.041 52.264ZM278.069 15.736C279.157 15.736 280.165 16.024 281.093 16.6C282.053 17.144 282.805 17.928 283.349 18.952C283.925 19.944 284.213 21.08 284.213 22.36C284.213 24.152 284.101 26.504 283.877 29.416C283.653 32.296 283.365 35.032 283.013 37.624C282.629 40.312 282.293 43.768 282.005 47.992C281.813 50.232 281.653 51.768 281.525 52.6C281.429 53.464 281.237 53.96 280.949 54.088L280.997 54.184C280.997 54.312 280.885 54.424 280.661 54.52C280.437 54.616 280.165 54.664 279.845 54.664C279.269 54.664 278.693 54.552 278.117 54.328C277.541 54.104 277.253 53.624 277.253 52.888C277.253 52.472 277.333 51.464 277.493 49.864C277.845 46.856 278.053 44.392 278.117 42.472L278.405 40.36H277.205C276.661 40.52 275.877 40.6 274.853 40.6L271.829 40.552C270.965 40.552 270.373 40.584 270.053 40.648C269.765 40.68 269.541 40.808 269.381 41.032C269.221 41.224 269.029 41.624 268.805 42.232C268.645 42.744 268.309 43.528 267.797 44.584C266.677 47.304 265.685 49.24 264.821 50.392C263.957 51.544 263.109 52.12 262.277 52.12C262.053 52.12 261.685 52.024 261.173 51.832C260.693 51.64 260.453 51.384 260.453 51.064C260.453 50.616 260.789 49.688 261.461 48.28C262.165 46.872 262.693 45.928 263.045 45.448C263.077 45.448 263.077 45.432 263.045 45.4C263.013 45.336 262.997 45.24 262.997 45.112C262.997 44.408 263.413 43.24 264.245 41.608C264.373 41.224 264.501 40.856 264.629 40.504C264.789 40.12 264.868 39.88 264.868 39.784L265.781 38.008C265.781 37.816 265.893 37.416 266.117 36.808C266.373 36.168 266.677 35.48 267.029 34.744C267.029 34.264 267.125 33.8 267.317 33.352C267.509 32.872 267.765 32.36 268.085 31.816C268.437 31.176 268.613 30.76 268.613 30.568C268.613 30.504 268.645 30.36 268.709 30.136C268.805 29.912 268.981 29.544 269.237 29.032C269.173 29.032 269.141 29.016 269.141 28.984C269.141 28.952 269.269 28.776 269.525 28.456C269.525 28.168 269.637 27.848 269.861 27.496C270.117 27.112 270.533 26.056 271.109 24.328L272.069 22.264C272.325 21.848 272.661 21.064 273.077 19.912L273.461 18.904L273.845 17.848C273.941 17.72 274.085 17.48 274.277 17.128C274.469 16.776 274.773 16.488 275.189 16.264C275.605 16.04 276.165 15.912 276.869 15.88C277.253 15.784 277.653 15.736 278.069 15.736ZM279.077 34.072C279.077 33.72 279.189 32.424 279.413 30.184C279.861 25.576 280.101 22.744 280.133 21.688C280.133 21.208 280.117 20.936 280.085 20.872C280.085 20.584 279.829 20.312 279.317 20.056C278.805 19.8 278.437 19.672 278.213 19.672C277.925 19.672 277.685 19.832 277.493 20.152C277.301 20.472 277.109 20.872 276.917 21.352C276.725 21.8 276.597 22.12 276.533 22.312L276.101 23.416C275.557 24.76 274.917 26.408 274.181 28.36C273.445 30.28 273.029 31.432 272.933 31.816C272.741 32.008 272.405 32.616 271.924 33.64C271.477 34.632 271.253 35.256 271.253 35.512C271.253 36.312 271.653 36.712 272.453 36.712C272.581 36.712 272.837 36.696 273.221 36.664C273.637 36.6 274.085 36.488 274.565 36.328H275.237C275.749 36.328 276.261 36.248 276.773 36.088C277.605 35.96 278.149 35.864 278.405 35.8C278.693 35.736 278.869 35.592 278.933 35.368C279.029 35.144 279.077 34.712 279.077 34.072Z" fill="#BABABA"/>
<path d="M10.848 48.544L10.896 48.4C10.896 48.08 10.624 47.904 10.08 47.872C9.408 47.456 8.688 46.752 7.92 45.76C7.152 44.736 6.672 43.952 6.48 43.408C6.384 43.152 6.336 42.976 6.336 42.88C6.336 42.72 6.4 42.608 6.528 42.544C6.656 42.448 6.816 42.368 7.008 42.304C7.2 42.208 7.344 42.144 7.44 42.112C8.016 41.728 8.448 41.536 8.736 41.536C9.056 41.536 9.328 41.744 9.552 42.16C10 42.96 10.72 43.632 11.712 44.176C12.704 44.688 13.808 44.944 15.024 44.944C16.112 44.944 17.088 44.752 17.952 44.368C18.784 43.984 19.2 43.424 19.2 42.688C19.2 42.144 18.96 41.488 18.48 40.72C18.416 40.528 18.304 40.352 18.144 40.192C17.984 40.032 17.792 39.872 17.568 39.712C17.056 39.328 16.496 38.832 15.888 38.224C15.376 38.032 14.848 37.776 14.304 37.456L13.296 36.976C12.496 36.592 11.6 35.984 10.608 35.152C9.616 34.288 8.928 33.488 8.544 32.752C7.84 32.08 7.488 31.056 7.488 29.68C7.488 28.176 7.84 26.768 8.544 25.456C8.928 24.592 9.856 23.264 11.328 21.472C12.8 19.68 13.888 18.56 14.592 18.112L15.84 16.912C15.872 16.784 15.92 16.72 15.984 16.72C16.048 16.688 16.096 16.672 16.128 16.672C16.224 16.608 16.56 16.464 17.136 16.24C17.712 15.984 18.32 15.552 18.96 14.944C20.912 13.984 22.64 13.312 24.144 12.928C25.68 12.512 26.96 12.304 27.984 12.304C29.232 12.368 30.384 12.816 31.44 13.648C32.528 14.48 33.152 15.44 33.312 16.528C33.376 16.848 33.408 17.104 33.408 17.296C33.408 18.48 32.928 19.808 31.968 21.28C31.008 22.752 29.984 23.792 28.896 24.4C28.416 24.624 27.952 24.736 27.504 24.736C26.96 24.736 26.512 24.592 26.16 24.304C25.84 24.016 25.696 23.648 25.728 23.2C25.728 22.912 25.824 22.592 26.016 22.24C26.24 21.856 26.72 21.248 27.456 20.416C28.544 18.816 29.088 17.664 29.088 16.96C29.088 16.48 28.8 16.192 28.224 16.096C27.872 16 26.912 16.144 25.344 16.528C23.808 16.88 23.04 17.136 23.04 17.296C23.04 17.328 23.024 17.392 22.992 17.488C22.992 17.552 22.944 17.568 22.848 17.536C22.72 17.504 21.808 18.032 20.112 19.12C18.448 20.208 17.584 20.832 17.52 20.992C17.488 21.152 17.36 21.328 17.136 21.52C16.944 21.68 16.704 21.824 16.416 21.952C15.84 22.304 15.312 22.784 14.832 23.392C14.384 24 13.792 24.96 13.056 26.272C12.672 26.816 12.352 27.408 12.096 28.048C11.872 28.688 11.76 29.264 11.76 29.776C11.76 30.128 11.808 30.432 11.904 30.688C12.032 31.168 12.368 31.616 12.912 32.032C13.488 32.416 14.576 33.088 16.176 34.048C17.808 34.976 19.28 35.968 20.592 37.024C21.904 38.048 22.704 38.864 22.992 39.472C23.504 40.208 23.76 41.168 23.76 42.352C23.76 43.28 23.632 44.16 23.376 44.992C23.088 45.6 22.72 46.16 22.272 46.672C21.824 47.216 21.424 47.472 21.072 47.44C20.752 47.536 20.48 47.648 20.256 47.776C20.032 47.936 19.84 48.048 19.68 48.112C19.296 48.336 18.304 48.56 16.704 48.784C15.136 49.04 13.824 49.152 12.768 49.12L10.848 48.544ZM33.2104 47.68C31.9624 46.752 31.0024 45.92 30.3304 45.184C29.6584 44.448 29.3064 43.744 29.2744 43.072C29.2424 42.912 29.2264 42.624 29.2264 42.208C29.2264 41.312 29.3064 40.192 29.4664 38.848C29.6264 37.504 29.7864 36.432 29.9464 35.632C30.0744 35.504 30.1384 35.312 30.1384 35.056C30.1704 34.8 30.1704 34.64 30.1384 34.576C30.1384 34.48 30.2184 34.16 30.3784 33.616C30.7624 32.432 31.0344 31.44 31.1944 30.64C32.0584 28.016 32.9064 25.92 33.7384 24.352C34.5704 22.784 35.4984 21.312 36.5224 19.936C38.6984 17.696 41.0184 16 43.4824 14.848C44.7304 14.112 45.6264 13.744 46.1704 13.744C46.2664 13.744 46.4104 13.776 46.6024 13.84C50.5384 14.704 52.8904 17.2 53.6584 21.328C53.9464 23.28 54.0904 24.752 54.0904 25.744C54.0904 27.344 53.8024 28.96 53.2264 30.592C52.6504 32.224 51.6104 34.272 50.1064 36.736C48.8264 39.296 47.3704 41.488 45.7384 43.312C44.1384 45.104 42.5224 46.448 40.8904 47.344C39.2904 48.24 37.7864 48.688 36.3784 48.688C35.1304 48.688 34.0744 48.352 33.2104 47.68ZM37.0504 44.512C37.8184 44.416 38.4104 44.272 38.8264 44.08C39.2744 43.888 39.7224 43.568 40.1704 43.12C40.6504 42.64 41.4184 41.792 42.4744 40.576C43.8184 39.04 44.7624 37.92 45.3064 37.216C45.8504 36.48 46.3464 35.568 46.7944 34.48C47.2744 33.392 47.8024 31.824 48.3784 29.776L48.6664 28.672C48.8584 28 48.9864 27.456 49.0504 27.04C49.1464 26.592 49.1944 26.112 49.1944 25.6L49.1464 22.576C49.1144 22 49.0024 21.376 48.8104 20.704C48.6184 20.032 48.3944 19.552 48.1384 19.264C47.8824 18.976 47.5304 18.736 47.0824 18.544C46.6664 18.32 46.2344 18.208 45.7864 18.208C45.4664 18.208 45.0984 18.288 44.6824 18.448C44.0744 18.704 43.2264 19.392 42.1384 20.512C41.0504 21.6 40.0744 22.72 39.2104 23.872C38.3784 25.024 37.9624 25.792 37.9624 26.176C37.9624 26.208 37.9464 26.304 37.9144 26.464C37.8824 26.624 37.8184 26.768 37.7224 26.896C36.8904 27.792 36.0424 29.68 35.1784 32.56C34.3464 35.44 33.8664 37.952 33.7384 40.096C33.7064 41.024 33.7064 41.664 33.7384 42.016C33.8024 42.368 33.9784 42.768 34.2664 43.216C34.4904 43.568 34.8904 43.904 35.4664 44.224C36.0744 44.512 36.6024 44.608 37.0504 44.512ZM63.5408 48.448C62.5808 48.512 61.4288 48.4 60.0848 48.112C58.7408 47.856 57.4608 47.296 56.2448 46.432C55.0608 45.6 54.3088 44.416 53.9888 42.88C53.7648 41.792 53.6528 40.592 53.6528 39.28C53.6528 36.624 54.0688 33.792 54.9008 30.784C55.2208 29.664 56.0528 27.936 57.3968 25.6C58.7728 23.264 60.0528 21.36 61.2368 19.888C62.0048 18.96 63.2048 17.824 64.8368 16.48C66.5008 15.104 67.6048 14.304 68.1488 14.08C68.5968 13.856 69.1088 13.744 69.6848 13.744C70.0688 13.744 70.4688 13.792 70.8848 13.888C71.5248 13.952 72.2288 14.24 72.9968 14.752C73.7968 15.264 74.2288 15.728 74.2928 16.144C74.2928 16.272 74.3568 16.336 74.4848 16.336C74.6448 16.336 74.9328 16.256 75.3488 16.096C75.5408 15.872 75.8608 15.68 76.3088 15.52C76.7568 15.36 77.1728 15.28 77.5568 15.28C77.9728 15.28 78.1968 15.376 78.2288 15.568C78.1648 15.664 78.1328 15.776 78.1328 15.904C78.1328 16.096 78.1968 16.24 78.3248 16.336C78.4848 16.272 78.4528 16.768 78.2288 17.824C78.0048 18.848 77.7488 19.616 77.4608 20.128L77.3168 20.608V20.752C77.3168 20.976 77.1728 21.232 76.8848 21.52C76.6928 21.808 76.4208 22.688 76.0688 24.16C75.7168 25.632 75.5568 26.528 75.5887 26.848C75.6208 26.976 75.5408 27.072 75.3488 27.136C75.1888 27.2 74.9648 27.232 74.6768 27.232C74.0688 27.232 73.5088 27.136 72.9968 26.944C72.4848 26.752 72.1168 26.544 71.8928 26.32C71.6688 26.096 71.5568 25.776 71.5568 25.36C71.5568 24.976 71.6848 24.352 71.9408 23.488C72.4528 21.76 72.7087 20.608 72.7087 20.032C72.7087 19.392 72.5168 18.928 72.1328 18.64C72.0368 18.448 71.8448 18.304 71.5568 18.208C71.3008 18.112 71.0128 18.064 70.6928 18.064C70.3728 18.064 70.0528 18.144 69.7328 18.304C68.9968 18.592 67.9088 19.424 66.4688 20.8C65.0288 22.144 63.7968 23.52 62.7728 24.928C61.2048 27.104 60.0208 29.296 59.2208 31.504C58.4528 33.68 58.0688 35.776 58.0688 37.792C58.0688 39.392 58.3088 40.896 58.7888 42.304C58.8528 42.464 59.0448 42.752 59.3648 43.168C59.6848 43.552 59.9408 43.808 60.1328 43.936C60.6448 44.064 61.3008 44.128 62.1008 44.128C62.7408 44.128 63.5088 44.08 64.4048 43.984C65.6848 43.76 66.6448 43.408 67.2848 42.928C67.9568 42.448 68.6448 41.712 69.3488 40.72C69.6368 40.304 69.9728 40.096 70.3568 40.096C70.7728 40.096 71.1568 40.32 71.5088 40.768C71.8608 41.216 72.0848 41.744 72.1808 42.352C72.1808 42.64 71.8928 43.232 71.3168 44.128C70.7728 44.992 70.3568 45.456 70.0688 45.52C69.9408 45.552 69.8608 45.6 69.8288 45.664C69.8288 45.696 69.8448 45.776 69.8768 45.904C69.8768 46.096 69.5248 46.368 68.8208 46.72C68.1168 47.104 67.2528 47.456 66.2288 47.776C65.2368 48.128 64.3408 48.352 63.5408 48.448ZM80.4469 49.264C80.2549 49.04 79.9989 48.88 79.6789 48.784C79.3909 48.688 78.9749 48.64 78.4309 48.64C78.2069 48.64 77.6469 48.672 76.7509 48.736C76.6549 48.768 76.4949 48.784 76.2709 48.784C75.6309 48.784 75.0229 48.624 74.4469 48.304C73.9029 47.984 73.6789 47.632 73.7749 47.248C73.8069 46.8 74.2069 46.368 74.9749 45.952C75.7749 45.504 76.7989 45.248 78.0469 45.184L80.1109 45.04L80.5909 44.032L81.5509 40.48C81.8389 39.552 82.1269 38.528 82.4149 37.408C83.3109 34.464 83.8549 32.528 84.0469 31.6C84.2069 31.184 84.4949 30.272 84.9109 28.864C85.3269 27.424 85.5829 26.448 85.6789 25.936C87.0229 21.296 87.5509 18.976 87.2629 18.976C86.9749 18.944 86.1269 19.024 84.7189 19.216C83.3109 19.408 82.5429 19.552 82.4149 19.648C82.3189 19.776 82.1909 19.84 82.0309 19.84C81.8069 19.84 81.5669 19.744 81.3109 19.552C81.0869 19.36 80.9269 19.152 80.8309 18.928C80.7989 18.8 80.7829 18.544 80.7829 18.16C80.7829 17.584 80.8629 17.232 81.0229 17.104C81.3429 16.848 82.1749 16.544 83.5189 16.192C84.8629 15.84 86.1909 15.552 87.5029 15.328C88.0469 15.264 88.5909 15.136 89.1349 14.944C89.6789 14.72 90.0949 14.48 90.3829 14.224C91.0229 13.968 91.5829 13.856 92.0629 13.888C92.2869 14.016 92.6869 14.08 93.2629 14.08C93.9029 14.08 94.6069 14.032 95.3749 13.936C96.3669 13.808 97.2309 13.744 97.9669 13.744C98.7349 13.744 99.2789 13.856 99.5989 14.08C99.9189 14.272 100.159 14.624 100.319 15.136C100.447 15.648 100.511 16 100.511 16.192C100.511 16.864 100.175 17.184 99.5029 17.152C98.9909 17.312 97.6789 17.456 95.5669 17.584C93.7429 17.808 92.7349 18.08 92.5429 18.4C92.3829 18.56 92.2549 18.704 92.1589 18.832C92.0949 18.96 92.0149 19.088 91.9189 19.216C92.0149 19.472 91.7749 20.544 91.1989 22.432L90.5269 24.64C90.3029 25.312 89.9509 26.416 89.4709 27.952C89.0229 29.456 88.7349 30.368 88.6069 30.688C88.3509 31.456 88.2229 32.016 88.2229 32.368L86.2069 40C85.5029 42.56 85.0709 44.176 84.9109 44.848C85.1349 44.848 85.6149 44.816 86.3509 44.752C87.0869 44.688 87.8069 44.608 88.5109 44.512C89.5349 44.384 90.3669 44.32 91.0069 44.32C91.5829 44.32 91.9509 44.384 92.1109 44.512C92.2709 44.608 92.3669 44.768 92.3989 44.992C92.4309 45.184 92.4629 45.344 92.4949 45.472C92.9109 45.984 93.1189 46.4 93.1189 46.72C93.1189 47.52 91.8869 47.936 89.4229 47.968L88.0789 48.064C85.9349 48.224 84.5269 48.352 83.8549 48.448C83.2149 48.576 82.8789 48.768 82.8469 49.024C82.8469 49.216 82.7189 49.408 82.4629 49.6C82.2069 49.792 81.9189 49.888 81.5989 49.888C81.2149 49.888 80.8309 49.68 80.4469 49.264ZM111.475 12.736C112.563 12.736 113.571 13.024 114.499 13.6C115.459 14.144 116.211 14.928 116.755 15.952C117.331 16.944 117.619 18.08 117.619 19.36C117.619 21.152 117.507 23.504 117.283 26.416C117.059 29.296 116.771 32.032 116.419 34.624C116.035 37.312 115.699 40.768 115.411 44.992C115.219 47.232 115.059 48.768 114.931 49.6C114.835 50.464 114.643 50.96 114.355 51.088L114.403 51.184C114.403 51.312 114.291 51.424 114.067 51.52C113.843 51.616 113.571 51.664 113.251 51.664C112.675 51.664 112.099 51.552 111.523 51.328C110.947 51.104 110.659 50.624 110.659 49.888C110.659 49.472 110.739 48.464 110.899 46.864C111.251 43.856 111.459 41.392 111.523 39.472L111.811 37.36H110.611C110.067 37.52 109.283 37.6 108.259 37.6L105.235 37.552C104.371 37.552 103.779 37.584 103.459 37.648C103.171 37.68 102.947 37.808 102.787 38.032C102.627 38.224 102.435 38.624 102.211 39.232C102.051 39.744 101.715 40.528 101.203 41.584C100.083 44.304 99.0908 46.24 98.2268 47.392C97.3628 48.544 96.5148 49.12 95.6828 49.12C95.4588 49.12 95.0908 49.024 94.5788 48.832C94.0988 48.64 93.8588 48.384 93.8588 48.064C93.8588 47.616 94.1948 46.688 94.8668 45.28C95.5708 43.872 96.0988 42.928 96.4508 42.448C96.4828 42.448 96.4828 42.432 96.4508 42.4C96.4188 42.336 96.4028 42.24 96.4028 42.112C96.4028 41.408 96.8188 40.24 97.6508 38.608C97.7788 38.224 97.9068 37.856 98.0348 37.504C98.1948 37.12 98.2747 36.88 98.2747 36.784L99.1868 35.008C99.1868 34.816 99.2988 34.416 99.5228 33.808C99.7788 33.168 100.083 32.48 100.435 31.744C100.435 31.264 100.531 30.8 100.723 30.352C100.915 29.872 101.171 29.36 101.491 28.816C101.843 28.176 102.019 27.76 102.019 27.568C102.019 27.504 102.051 27.36 102.115 27.136C102.211 26.912 102.387 26.544 102.643 26.032C102.579 26.032 102.547 26.016 102.547 25.984C102.547 25.952 102.675 25.776 102.931 25.456C102.931 25.168 103.043 24.848 103.267 24.496C103.523 24.112 103.939 23.056 104.515 21.328L105.475 19.264C105.731 18.848 106.067 18.064 106.483 16.912L106.867 15.904L107.251 14.848C107.347 14.72 107.491 14.48 107.683 14.128C107.875 13.776 108.179 13.488 108.595 13.264C109.011 13.04 109.571 12.912 110.275 12.88C110.659 12.784 111.059 12.736 111.475 12.736ZM112.483 31.072C112.483 30.72 112.595 29.424 112.819 27.184C113.267 22.576 113.507 19.744 113.539 18.688C113.539 18.208 113.523 17.936 113.491 17.872C113.491 17.584 113.235 17.312 112.723 17.056C112.211 16.8 111.843 16.672 111.619 16.672C111.331 16.672 111.091 16.832 110.899 17.152C110.707 17.472 110.515 17.872 110.323 18.352C110.131 18.8 110.003 19.12 109.939 19.312L109.507 20.416C108.963 21.76 108.323 23.408 107.587 25.36C106.851 27.28 106.435 28.432 106.339 28.816C106.147 29.008 105.811 29.616 105.331 30.64C104.883 31.632 104.659 32.256 104.659 32.512C104.659 33.312 105.059 33.712 105.859 33.712C105.987 33.712 106.243 33.696 106.627 33.664C107.043 33.6 107.491 33.488 107.971 33.328H108.643C109.155 33.328 109.667 33.248 110.179 33.088C111.011 32.96 111.555 32.864 111.811 32.8C112.099 32.736 112.275 32.592 112.339 32.368C112.435 32.144 112.483 31.712 112.483 31.072ZM125.405 48.352C124.349 48.192 123.389 47.856 122.525 47.344C121.693 46.832 121.133 46.176 120.845 45.376C120.781 45.216 120.621 44.816 120.365 44.176C120.141 43.536 120.029 42.848 120.029 42.112C120.029 41.568 120.125 41.008 120.317 40.432C120.541 38.064 121.037 35.792 121.805 33.616C121.837 33.456 121.917 33.152 122.045 32.704C122.205 32.256 122.397 31.744 122.621 31.168C123.133 29.6 123.933 27.712 125.021 25.504C126.109 23.264 127.245 21.232 128.429 19.408C129.613 17.584 130.557 16.4 131.261 15.856C131.517 15.632 131.933 15.424 132.509 15.232C133.117 15.04 133.645 14.944 134.093 14.944C134.637 14.944 134.909 15.072 134.909 15.328C134.845 15.488 134.813 15.6 134.813 15.664C134.813 15.696 134.877 15.728 135.005 15.76C135.197 15.76 135.293 15.904 135.293 16.192C135.293 16.608 135.085 17.152 134.669 17.824C134.285 18.464 133.853 18.928 133.373 19.216C133.373 19.28 133.325 19.408 133.229 19.6C133.133 19.792 132.941 20 132.653 20.224C132.557 20.544 132.445 20.832 132.317 21.088C132.189 21.344 132.109 21.504 132.077 21.568C132.045 21.632 131.949 21.776 131.789 22C131.661 22.224 131.517 22.512 131.357 22.864C130.717 23.664 130.397 24.192 130.397 24.448C130.301 24.672 130.093 25.088 129.773 25.696C129.485 26.272 129.341 26.608 129.341 26.704L129.005 26.944C129.005 27.168 128.893 27.568 128.669 28.144C128.477 28.688 128.221 29.184 127.901 29.632C127.677 30.144 127.325 31.088 126.845 32.464C126.653 33.2 126.477 33.696 126.317 33.952C126.253 34.08 126.205 34.256 126.173 34.48C126.045 34.608 125.901 34.944 125.741 35.488C125.581 36.032 125.469 36.688 125.405 37.456L124.541 39.904C124.477 40.224 124.445 40.48 124.445 40.672C124.445 40.96 124.477 41.36 124.541 41.872C124.637 42.352 124.701 42.752 124.733 43.072C124.989 43.392 125.197 43.616 125.357 43.744C125.549 43.84 125.869 43.888 126.317 43.888C126.701 43.888 127.037 43.872 127.325 43.84C127.421 43.872 127.581 43.888 127.805 43.888C128.093 43.888 128.477 43.872 128.957 43.84C129.437 43.776 129.805 43.76 130.061 43.792C130.989 43.792 132.029 43.696 133.181 43.504C133.373 43.472 133.613 43.456 133.901 43.456C134.541 43.456 135.037 43.536 135.389 43.696C135.741 43.856 136.061 44.08 136.349 44.368C136.509 44.56 136.589 44.816 136.589 45.136C136.589 45.52 136.413 45.872 136.061 46.192C135.741 46.544 135.341 46.784 134.861 46.912C133.005 47.392 131.165 47.76 129.341 48.016C127.549 48.304 126.237 48.416 125.405 48.352ZM150.891 48.784C150.411 48.784 149.915 48.464 149.403 47.824C148.891 47.216 148.635 46.448 148.635 45.52C148.635 44.784 148.811 44.064 149.163 43.36C149.803 42.016 150.443 40.928 151.083 40.096C151.307 39.776 151.467 39.504 151.563 39.28C151.691 39.056 151.771 38.752 151.803 38.368C152.251 37.792 152.843 36.752 153.579 35.248C154.827 33.232 156.603 30.128 158.907 25.936C159.227 25.36 159.851 24.224 160.779 22.528C161.739 20.832 162.379 19.824 162.699 19.504L162.939 19.168C162.843 19.328 163.003 18.96 163.419 18.064C163.867 17.168 164.331 16.368 164.811 15.664C165.323 14.928 165.771 14.56 166.155 14.56C166.571 14.56 167.051 14.736 167.595 15.088C168.139 15.408 168.603 15.904 168.987 16.576C169.403 17.216 169.611 17.984 169.611 18.88C169.611 19.264 169.595 19.568 169.563 19.792L169.083 23.056L168.843 24.112C168.427 26.224 167.803 29.12 166.971 32.8C166.235 36.064 165.867 38.032 165.867 38.704C165.867 38.896 165.899 39.056 165.963 39.184C166.027 39.28 166.107 39.328 166.203 39.328C166.267 39.328 166.427 39.232 166.683 39.04C166.939 38.816 167.163 38.496 167.355 38.08L167.979 37.12L168.795 35.92C169.691 34.672 170.795 32.992 172.107 30.88C173.419 28.736 175.547 25.072 178.491 19.888C179.099 18.992 179.595 18.208 179.979 17.536C180.491 16.704 180.987 15.92 181.467 15.184C181.947 14.448 182.315 13.984 182.571 13.792C182.891 13.536 183.291 13.408 183.771 13.408C184.251 13.44 184.747 13.616 185.259 13.936C185.803 14.256 186.251 14.704 186.603 15.28C186.987 15.856 187.179 16.48 187.179 17.152C187.179 17.92 186.939 19.328 186.459 21.376C186.011 23.424 185.483 25.408 184.875 27.328C184.747 28 184.347 29.584 183.675 32.08C183.163 33.936 182.779 35.408 182.523 36.496C182.299 37.584 182.187 38.464 182.187 39.136V39.52C181.707 40.384 181.467 42.112 181.467 44.704C181.339 45.76 181.099 46.576 180.747 47.152C180.395 47.76 180.107 48.064 179.883 48.064L179.739 48.016C179.579 48.016 179.419 48.08 179.259 48.208C179.131 48.368 178.939 48.448 178.683 48.448C177.883 48.448 177.355 48.16 177.099 47.584C176.875 47.008 176.763 46.224 176.763 45.232C176.763 44.656 176.779 44.176 176.811 43.792C176.907 42.96 177.931 38.624 179.883 30.784C181.419 24.64 182.187 21.424 182.187 21.136L181.515 22.288C180.875 23.504 180.075 24.928 179.115 26.56L175.755 32.848C175.339 33.424 174.987 33.984 174.699 34.528C174.443 35.072 174.299 35.392 174.267 35.488C173.883 36.256 173.115 37.36 171.963 38.8C171.579 39.28 171.355 39.584 171.291 39.712C171.131 40.064 170.619 40.688 169.755 41.584C168.891 42.448 167.979 43.248 167.019 43.984C166.059 44.688 165.259 45.04 164.619 45.04C163.755 45.04 162.971 44.624 162.267 43.792C161.595 42.96 161.259 41.952 161.259 40.768C161.259 39.904 161.419 38.464 161.739 36.448C162.251 34.24 162.795 32 163.371 29.728C163.947 27.456 164.347 25.968 164.571 25.264C164.667 24.976 164.715 24.656 164.715 24.304C164.715 24.08 164.683 23.936 164.619 23.872C164.587 23.872 164.539 23.904 164.475 23.968C164.443 24.032 164.395 24.112 164.331 24.208C163.851 24.976 163.099 26.32 162.075 28.24C161.051 30.16 159.947 32.416 158.763 35.008C154.187 43.424 151.563 48.016 150.891 48.784ZM193.3 47.872C192.532 47.808 191.764 47.568 190.996 47.152C190.228 46.736 189.524 46.304 188.884 45.856C188.244 45.408 187.812 45.104 187.588 44.944C187.044 44.4 186.628 43.824 186.34 43.216C186.052 42.576 185.812 41.744 185.62 40.72C185.556 40.336 185.524 40 185.524 39.712C185.524 38.752 185.684 37.584 186.004 36.208C186.356 34.8 186.708 33.712 187.06 32.944C187.764 31.248 189.316 28.528 191.716 24.784C191.844 24.656 191.924 24.576 191.956 24.544C192.02 24.48 192.036 24.448 192.004 24.448C192.004 24.416 192.004 24.4 192.004 24.4C192.004 24.176 192.468 23.184 193.396 21.424C193.94 20.848 194.212 20.352 194.212 19.936C194.212 19.712 194.164 19.536 194.068 19.408C193.972 19.28 194.1 19.008 194.452 18.592C194.804 18.144 195.284 17.664 195.892 17.152C196.532 16.608 197.204 16.144 197.908 15.76C198.772 15.088 199.62 14.752 200.452 14.752C200.708 14.752 200.916 14.8 201.076 14.896C201.268 14.96 201.38 15.072 201.412 15.232C201.412 15.424 202.052 15.36 203.332 15.04C203.908 14.912 204.324 14.832 204.58 14.8C204.708 14.64 205.028 14.512 205.54 14.416C206.084 14.288 206.836 14.16 207.796 14.032C208.308 14.064 208.932 14.064 209.668 14.032C210.436 14 210.932 13.968 211.156 13.936C211.38 13.872 211.7 14.016 212.116 14.368C212.564 14.72 212.916 15.168 213.172 15.712C213.236 15.904 213.268 16.048 213.268 16.144C213.268 16.624 212.964 17.04 212.356 17.392C211.748 17.712 210.868 17.936 209.716 18.064C208.532 18.224 207.492 18.384 206.596 18.544C205.7 18.704 204.58 18.928 203.236 19.216L202.228 19.408C201.236 19.568 200.5 19.776 200.02 20.032C199.54 20.288 199.028 20.848 198.484 21.712C198.26 21.872 197.972 22.288 197.62 22.96C197.268 23.6 196.916 24.272 196.564 24.976L195.604 26.272C194.868 27.264 194.404 27.92 194.212 28.24C194.052 28.528 194.02 28.736 194.116 28.864C194.244 28.896 194.468 28.944 194.788 29.008C195.14 29.072 195.428 29.12 195.652 29.152C195.94 28.992 196.34 28.88 196.852 28.816C197.364 28.752 197.732 28.688 197.956 28.624L199.012 28.336C200.996 27.824 202.452 27.456 203.38 27.232C204.308 27.008 204.996 26.864 205.444 26.8C205.604 26.672 205.796 26.608 206.02 26.608C206.372 26.608 206.708 26.784 207.028 27.136C207.38 27.456 207.636 27.84 207.796 28.288C207.924 28.736 207.988 29.024 207.988 29.152C207.988 29.696 207.668 30.112 207.028 30.4C206.388 30.656 205.108 31.008 203.188 31.456C200.404 32.128 198.66 32.56 197.956 32.752C195.876 33.36 194.34 33.664 193.348 33.664C192.516 33.664 192.116 33.392 192.148 32.848C191.86 32.688 191.524 32.976 191.14 33.712C190.756 34.448 190.42 35.36 190.132 36.448C189.876 37.536 189.748 38.48 189.748 39.28C189.748 39.696 189.796 40.048 189.892 40.336C190.18 41.104 190.612 41.76 191.188 42.304C191.764 42.816 192.564 43.216 193.588 43.504C193.812 43.536 194.084 43.568 194.404 43.6C194.756 43.632 195.156 43.648 195.604 43.648C196.244 43.648 196.884 43.52 197.524 43.264C200.02 42.848 201.78 42.272 202.804 41.536C202.964 41.472 203.108 41.36 203.236 41.2C203.396 41.04 203.54 40.96 203.668 40.96L203.62 41.056C203.62 41.088 203.716 41.024 203.908 40.864C204.1 40.672 204.308 40.48 204.532 40.288C205.428 39.52 206.42 39.136 207.508 39.136C207.892 39.136 208.212 39.2 208.468 39.328C208.756 39.424 208.916 39.52 208.948 39.616C209.14 39.936 209.044 40.448 208.66 41.152C208.276 41.856 207.668 42.592 206.836 43.36C206.036 44.128 205.14 44.8 204.148 45.376C202.58 46.208 200.82 46.816 198.868 47.2C196.948 47.616 195.092 47.84 193.3 47.872ZM218.317 49.072C216.781 49.072 215.517 48.816 214.525 48.304C213.533 47.824 212.925 46.912 212.701 45.568C212.733 44.768 212.765 44.272 212.797 44.08C212.861 43.856 212.989 43.744 213.181 43.744C213.469 43.744 213.613 43.584 213.613 43.264C213.645 42.464 213.805 41.472 214.093 40.288C214.413 39.072 214.717 38.256 215.005 37.84C215.325 36.656 215.901 34.784 216.733 32.224C217.597 29.632 218.285 27.6 218.797 26.128C218.829 26 219.021 25.552 219.373 24.784C219.917 23.472 220.221 22.704 220.285 22.48L220.573 21.568C220.637 21.408 220.781 20.976 221.005 20.272C221.261 19.536 221.501 18.992 221.725 18.64L222.541 17.2L221.245 16.096C220.797 15.648 220.573 15.2 220.573 14.752C220.573 14.272 220.877 13.856 221.485 13.504C222.093 13.12 222.829 12.864 223.693 12.736C224.109 12.672 224.893 12.64 226.045 12.64C227.965 12.64 229.661 12.752 231.133 12.976C231.677 13.072 232.397 13.344 233.293 13.792C234.189 14.24 234.813 14.64 235.165 14.992C235.197 15.024 235.277 15.088 235.405 15.184C235.533 15.28 235.645 15.328 235.741 15.328C235.965 15.456 236.333 15.856 236.845 16.528C237.357 17.168 237.837 17.888 238.285 18.688C238.733 19.456 239.005 20.128 239.101 20.704C239.293 21.664 239.389 22.688 239.389 23.776C239.325 25.376 239.197 26.88 239.005 28.288C238.877 29.184 238.637 30.24 238.285 31.456C237.933 32.64 237.581 33.696 237.229 34.624C236.877 35.552 236.669 36.016 236.605 36.016C236.445 36.016 236.333 36.064 236.269 36.16C236.237 36.224 236.221 36.336 236.221 36.496C236.189 36.944 235.837 37.696 235.165 38.752C234.525 39.776 233.773 40.8 232.909 41.824C232.045 42.816 231.293 43.504 230.653 43.888C229.213 45.488 227.309 46.752 224.941 47.68C222.605 48.608 220.397 49.072 218.317 49.072ZM219.517 44.224C221.021 44.224 222.125 44.096 222.829 43.84C223.629 43.648 224.573 43.216 225.661 42.544C226.749 41.872 227.725 41.104 228.589 40.24C229.709 39.088 230.653 37.952 231.421 36.832C232.189 35.712 232.925 34.256 233.629 32.464C234.141 31.248 234.525 29.984 234.781 28.672C235.037 27.36 235.165 26.144 235.165 25.024C235.165 23.2 234.813 21.696 234.109 20.512C233.437 19.296 232.525 18.48 231.373 18.064C230.509 17.744 229.581 17.584 228.589 17.584C227.757 17.584 227.213 17.648 226.957 17.776C226.285 17.776 225.485 19.424 224.557 22.72C224.301 23.648 223.949 24.656 223.501 25.744C223.085 26.768 222.701 27.888 222.349 29.104C221.901 29.936 221.501 30.864 221.149 31.888C220.829 32.88 220.557 33.744 220.333 34.48L220.045 35.392C219.661 36.096 219.261 37.44 218.845 39.424C218.461 41.376 218.269 42.768 218.269 43.6C218.269 44.016 218.685 44.224 219.517 44.224ZM244.041 49.264C243.849 49.04 243.593 48.88 243.273 48.784C242.985 48.688 242.569 48.64 242.025 48.64C241.801 48.64 241.241 48.672 240.345 48.736C240.249 48.768 240.089 48.784 239.865 48.784C239.225 48.784 238.617 48.624 238.041 48.304C237.497 47.984 237.273 47.632 237.369 47.248C237.401 46.8 237.801 46.368 238.569 45.952C239.369 45.504 240.393 45.248 241.641 45.184L243.705 45.04L244.185 44.032L245.145 40.48C245.433 39.552 245.721 38.528 246.009 37.408C246.905 34.464 247.449 32.528 247.641 31.6C247.801 31.184 248.089 30.272 248.505 28.864C248.921 27.424 249.177 26.448 249.273 25.936C250.617 21.296 251.145 18.976 250.857 18.976C250.569 18.944 249.721 19.024 248.313 19.216C246.905 19.408 246.137 19.552 246.009 19.648C245.913 19.776 245.785 19.84 245.625 19.84C245.401 19.84 245.161 19.744 244.905 19.552C244.681 19.36 244.521 19.152 244.425 18.928C244.393 18.8 244.377 18.544 244.377 18.16C244.377 17.584 244.457 17.232 244.617 17.104C244.937 16.848 245.769 16.544 247.113 16.192C248.457 15.84 249.785 15.552 251.097 15.328C251.641 15.264 252.185 15.136 252.729 14.944C253.273 14.72 253.689 14.48 253.977 14.224C254.617 13.968 255.177 13.856 255.657 13.888C255.881 14.016 256.281 14.08 256.857 14.08C257.497 14.08 258.201 14.032 258.969 13.936C259.961 13.808 260.825 13.744 261.561 13.744C262.329 13.744 262.873 13.856 263.193 14.08C263.513 14.272 263.753 14.624 263.913 15.136C264.041 15.648 264.105 16 264.105 16.192C264.105 16.864 263.769 17.184 263.097 17.152C262.585 17.312 261.273 17.456 259.161 17.584C257.337 17.808 256.329 18.08 256.137 18.4C255.977 18.56 255.849 18.704 255.753 18.832C255.689 18.96 255.609 19.088 255.513 19.216C255.609 19.472 255.369 20.544 254.793 22.432L254.121 24.64C253.897 25.312 253.545 26.416 253.065 27.952C252.617 29.456 252.329 30.368 252.201 30.688C251.945 31.456 251.817 32.016 251.817 32.368L249.801 40C249.097 42.56 248.665 44.176 248.505 44.848C248.729 44.848 249.209 44.816 249.945 44.752C250.681 44.688 251.401 44.608 252.105 44.512C253.129 44.384 253.961 44.32 254.601 44.32C255.177 44.32 255.545 44.384 255.705 44.512C255.865 44.608 255.961 44.768 255.993 44.992C256.025 45.184 256.057 45.344 256.089 45.472C256.505 45.984 256.713 46.4 256.713 46.72C256.713 47.52 255.481 47.936 253.017 47.968L251.673 48.064C249.529 48.224 248.121 48.352 247.449 48.448C246.809 48.576 246.473 48.768 246.441 49.024C246.441 49.216 246.313 49.408 246.057 49.6C245.801 49.792 245.513 49.888 245.193 49.888C244.809 49.888 244.425 49.68 244.041 49.264ZM275.069 12.736C276.157 12.736 277.165 13.024 278.093 13.6C279.053 14.144 279.805 14.928 280.349 15.952C280.925 16.944 281.213 18.08 281.213 19.36C281.213 21.152 281.101 23.504 280.877 26.416C280.653 29.296 280.365 32.032 280.013 34.624C279.629 37.312 279.293 40.768 279.005 44.992C278.813 47.232 278.653 48.768 278.525 49.6C278.429 50.464 278.237 50.96 277.949 51.088L277.997 51.184C277.997 51.312 277.885 51.424 277.661 51.52C277.437 51.616 277.165 51.664 276.845 51.664C276.269 51.664 275.693 51.552 275.117 51.328C274.541 51.104 274.253 50.624 274.253 49.888C274.253 49.472 274.333 48.464 274.493 46.864C274.845 43.856 275.053 41.392 275.117 39.472L275.405 37.36H274.205C273.661 37.52 272.877 37.6 271.853 37.6L268.829 37.552C267.965 37.552 267.373 37.584 267.053 37.648C266.765 37.68 266.541 37.808 266.381 38.032C266.221 38.224 266.029 38.624 265.805 39.232C265.645 39.744 265.309 40.528 264.797 41.584C263.677 44.304 262.685 46.24 261.821 47.392C260.957 48.544 260.109 49.12 259.277 49.12C259.053 49.12 258.685 49.024 258.173 48.832C257.693 48.64 257.453 48.384 257.453 48.064C257.453 47.616 257.789 46.688 258.461 45.28C259.165 43.872 259.693 42.928 260.045 42.448C260.077 42.448 260.077 42.432 260.045 42.4C260.013 42.336 259.997 42.24 259.997 42.112C259.997 41.408 260.413 40.24 261.245 38.608C261.373 38.224 261.501 37.856 261.629 37.504C261.789 37.12 261.868 36.88 261.868 36.784L262.781 35.008C262.781 34.816 262.893 34.416 263.117 33.808C263.373 33.168 263.677 32.48 264.029 31.744C264.029 31.264 264.125 30.8 264.317 30.352C264.509 29.872 264.765 29.36 265.085 28.816C265.437 28.176 265.613 27.76 265.613 27.568C265.613 27.504 265.645 27.36 265.709 27.136C265.805 26.912 265.981 26.544 266.237 26.032C266.173 26.032 266.141 26.016 266.141 25.984C266.141 25.952 266.269 25.776 266.525 25.456C266.525 25.168 266.637 24.848 266.861 24.496C267.117 24.112 267.533 23.056 268.109 21.328L269.069 19.264C269.325 18.848 269.661 18.064 270.077 16.912L270.461 15.904L270.845 14.848C270.941 14.72 271.085 14.48 271.277 14.128C271.469 13.776 271.773 13.488 272.189 13.264C272.605 13.04 273.165 12.912 273.869 12.88C274.253 12.784 274.653 12.736 275.069 12.736ZM276.077 31.072C276.077 30.72 276.189 29.424 276.413 27.184C276.861 22.576 277.101 19.744 277.133 18.688C277.133 18.208 277.117 17.936 277.085 17.872C277.085 17.584 276.829 17.312 276.317 17.056C275.805 16.8 275.437 16.672 275.213 16.672C274.925 16.672 274.685 16.832 274.493 17.152C274.301 17.472 274.109 17.872 273.917 18.352C273.725 18.8 273.597 19.12 273.533 19.312L273.101 20.416C272.557 21.76 271.917 23.408 271.181 25.36C270.445 27.28 270.029 28.432 269.933 28.816C269.741 29.008 269.405 29.616 268.924 30.64C268.477 31.632 268.253 32.256 268.253 32.512C268.253 33.312 268.653 33.712 269.453 33.712C269.581 33.712 269.837 33.696 270.221 33.664C270.637 33.6 271.085 33.488 271.565 33.328H272.237C272.749 33.328 273.261 33.248 273.773 33.088C274.605 32.96 275.149 32.864 275.405 32.8C275.693 32.736 275.869 32.592 275.933 32.368C276.029 32.144 276.077 31.712 276.077 31.072Z" fill="black"/>
</svg>
